<svg width="21" height="20" viewBox="0 0 21 20" fill="none" xmlns="http://www.w3.org/2000/svg">
<g clip-path="url(#clip0_1_1780)">
<path d="M19.3679 7.48467L10.5025 16.3765C10.3969 16.482 10.2826 16.557 10.1594 16.6013C10.0363 16.6456 9.90439 16.6674 9.76367 16.6667C9.62295 16.6667 9.49102 16.6446 9.36789 16.6002C9.24476 16.5559 9.13042 16.4813 9.02488 16.3765L0.133065 7.48467C-0.113197 7.23841 -0.236328 6.93058 -0.236328 6.56119C-0.236328 6.1918 -0.104402 5.87517 0.15945 5.61132C0.423302 5.34747 0.73113 5.21554 1.08293 5.21554C1.43474 5.21554 1.74256 5.34747 2.00642 5.61132L9.76367 13.3686L17.5209 5.61132C17.7672 5.36506 18.0708 5.24193 18.4317 5.24193C18.7927 5.24193 19.1047 5.37385 19.3679 5.63771C19.6317 5.90156 19.7637 6.20939 19.7637 6.56119C19.7637 6.91299 19.6317 7.22082 19.3679 7.48467Z" fill="white"/>
</g>
<defs>
<clipPath id="clip0_1_1780">
<rect width="20" height="20" fill="white" transform="matrix(0 -1 1 0 0.0439453 19.9961)"/>
</clipPath>
</defs>
</svg>
