<svg width="140" height="160" viewBox="0 0 140 160" fill="none" xmlns="http://www.w3.org/2000/svg">
<rect width="60" height="80" transform="translate(40 40)" fill="#1E0044"/>
<path d="M69.2512 65.7368C68.7536 65.7368 68.3339 65.5653 67.9922 65.2224C67.6505 64.8794 67.5 64.4759 67.5406 64.0118C67.6028 63.1645 67.8102 62.4281 68.1626 61.8026C68.5151 61.1772 69.0749 60.5316 69.8421 59.8658C70.6922 59.1395 71.3403 58.5088 71.7865 57.9737C72.2327 57.4387 72.4554 56.8286 72.4545 56.1434C72.4545 55.3162 72.1696 54.6303 71.5999 54.0855C71.0301 53.5408 70.2368 53.2684 69.2201 53.2684C68.5566 53.2684 67.9914 53.4048 67.5245 53.6776C67.0575 53.9504 66.6794 54.2881 66.3899 54.6908C66.0996 55.0943 65.7422 55.3667 65.3176 55.5079C64.8929 55.6491 64.4832 55.639 64.0885 55.4776C63.6116 55.2759 63.2852 54.943 63.1094 54.4789C62.9336 54.0149 62.9697 53.5811 63.2176 53.1776C63.8189 52.2697 64.6275 51.5132 65.6435 50.9079C66.6594 50.3026 67.8516 50 69.2201 50C71.3971 50 73.0716 50.5899 74.2434 51.7698C75.4153 52.9496 76.0008 54.3672 76 56.0224C76 57.0311 75.7773 57.8938 75.332 58.6105C74.8866 59.3271 74.1866 60.139 73.232 61.0461C72.5271 61.6917 72.0295 62.2162 71.7392 62.6197C71.4489 63.0232 71.252 63.4873 71.1483 64.0118C71.0654 64.5162 70.8477 64.9298 70.4952 65.2526C70.1427 65.5754 69.728 65.7368 69.2512 65.7368ZM69.2201 73C68.5359 73 67.9499 72.7627 67.4623 72.2882C66.9746 71.8137 66.7312 71.2439 66.732 70.5789C66.732 69.9132 66.9758 69.343 67.4635 68.8685C67.9512 68.3939 68.5367 68.1571 69.2201 68.1579C69.9043 68.1579 70.4902 68.3952 70.9779 68.8697C71.4655 69.3442 71.7089 69.914 71.7081 70.5789C71.7081 71.2447 71.4643 71.8149 70.9766 72.2894C70.489 72.7639 69.9034 73.0008 69.2201 73Z" fill="#F8EDFF"/>
<path d="M80.9923 109C78.4564 109 75.9846 108.388 73.5769 107.163C71.1691 105.938 69.0362 104.319 67.1782 102.307C65.3201 100.295 63.8261 97.9843 62.6961 95.3751C61.5662 92.7658 61.0008 90.088 61 87.3417C61 86.9583 61.1179 86.6389 61.3538 86.3833C61.5897 86.1278 61.8846 86 62.2385 86H67.0154C67.2906 86 67.5363 86.0958 67.7526 86.2875C67.9688 86.4792 68.0966 86.7241 68.1359 87.0222L68.9026 91.4944C68.9419 91.7926 68.9368 92.0643 68.8872 92.3097C68.8377 92.555 68.7249 92.7731 68.5487 92.9639L65.7179 96.0944C66.5436 97.6278 67.5756 99.0653 68.8141 100.407C70.0526 101.749 71.4188 102.909 72.9128 103.889L75.6846 100.886C75.8615 100.694 76.0927 100.551 76.3782 100.455C76.6636 100.36 76.9435 100.333 77.2179 100.375L81.2872 101.269C81.5624 101.333 81.7885 101.477 81.9654 101.701C82.1423 101.925 82.2308 102.186 82.2308 102.483V107.658C82.2308 108.042 82.1128 108.361 81.8769 108.617C81.641 108.872 81.3462 109 80.9923 109Z" fill="#F8EDFF"/>
<rect x="40" y="4" width="147.25" height="30" rx="3" fill="#1E0044"/>
<rect x="40.5" y="4.5" width="146.25" height="29" rx="2.5" stroke="black" stroke-opacity="0.2"/>
<path d="M50.125 20.75L52.2188 16H53.0938L50.5 22H49.75L47.2031 16H48.0625L50.125 20.75ZM47.7656 16V22H46.8438V16H47.7656ZM52.4844 22V16H53.4063V22H52.4844ZM56.8594 22.1406C56.4792 22.1406 56.1341 22.069 55.8242 21.9258C55.5143 21.7799 55.2682 21.5703 55.0859 21.2969C54.9036 21.0208 54.8125 20.6875 54.8125 20.2969C54.8125 19.9531 54.8802 19.6745 55.0156 19.4609C55.151 19.2448 55.332 19.0755 55.5586 18.9531C55.7852 18.8307 56.0352 18.7396 56.3086 18.6797C56.5846 18.6172 56.862 18.5677 57.1406 18.5313C57.5052 18.4844 57.8008 18.4492 58.0273 18.4258C58.2565 18.3997 58.4232 18.3568 58.5273 18.2969C58.6341 18.237 58.6875 18.1328 58.6875 17.9844V17.9531C58.6875 17.5677 58.582 17.2682 58.3711 17.0547C58.1628 16.8411 57.8464 16.7344 57.4219 16.7344C56.9818 16.7344 56.6367 16.8307 56.3867 17.0234C56.1367 17.2161 55.9609 17.4219 55.8594 17.6406L54.9844 17.3281C55.1406 16.9635 55.349 16.6797 55.6094 16.4766C55.8724 16.2708 56.1589 16.1276 56.4688 16.0469C56.7813 15.9635 57.0885 15.9219 57.3906 15.9219C57.5833 15.9219 57.8047 15.9453 58.0547 15.9922C58.3073 16.0365 58.5508 16.1289 58.7852 16.2695C59.0221 16.4102 59.2188 16.6224 59.375 16.9062C59.5313 17.1901 59.6094 17.5703 59.6094 18.0469V22H58.6875V21.1875H58.6406C58.5781 21.3177 58.474 21.457 58.3281 21.6055C58.1823 21.7539 57.9883 21.8802 57.7461 21.9844C57.5039 22.0885 57.2083 22.1406 56.8594 22.1406ZM57 21.3125C57.3646 21.3125 57.6719 21.2409 57.9219 21.0977C58.1745 20.9544 58.3646 20.7695 58.4922 20.543C58.6224 20.3164 58.6875 20.0781 58.6875 19.8281V18.9844C58.6484 19.0312 58.5625 19.0742 58.4297 19.1133C58.2995 19.1497 58.1484 19.1823 57.9766 19.2109C57.8073 19.237 57.6419 19.2604 57.4805 19.2812C57.3216 19.2995 57.1927 19.3151 57.0938 19.3281C56.8542 19.3594 56.6302 19.4102 56.4219 19.4805C56.2161 19.5482 56.0495 19.651 55.9219 19.7891C55.7969 19.9245 55.7344 20.1094 55.7344 20.3437C55.7344 20.6641 55.8529 20.9062 56.0898 21.0703C56.3294 21.2318 56.6328 21.3125 57 21.3125ZM60.4756 16.8594V16H65.3506V16.8594H63.3818V22H62.46V16.8594H60.4756ZM68.8994 22.125C68.3213 22.125 67.8226 21.9974 67.4033 21.7422C66.9867 21.4844 66.665 21.125 66.4385 20.6641C66.2145 20.2005 66.1025 19.6615 66.1025 19.0469C66.1025 18.4323 66.2145 17.8906 66.4385 17.4219C66.665 16.9505 66.9801 16.5833 67.3838 16.3203C67.79 16.0547 68.264 15.9219 68.8057 15.9219C69.1182 15.9219 69.4268 15.974 69.7314 16.0781C70.0361 16.1823 70.3135 16.3516 70.5635 16.5859C70.8135 16.8177 71.0127 17.125 71.1611 17.5078C71.3096 17.8906 71.3838 18.362 71.3838 18.9219V19.3125H66.7588V18.5156H70.4463C70.4463 18.1771 70.3786 17.875 70.2432 17.6094C70.1104 17.3437 69.9202 17.1341 69.6729 16.9805C69.4281 16.8268 69.139 16.75 68.8057 16.75C68.4385 16.75 68.1208 16.8411 67.8525 17.0234C67.5869 17.2031 67.3825 17.4375 67.2393 17.7266C67.096 18.0156 67.0244 18.3255 67.0244 18.6562V19.1875C67.0244 19.6406 67.1025 20.0247 67.2588 20.3398C67.4176 20.6523 67.6377 20.8906 67.9189 21.0547C68.2002 21.2161 68.527 21.2969 68.8994 21.2969C69.1416 21.2969 69.3604 21.263 69.5557 21.1953C69.7536 21.125 69.9242 21.0208 70.0674 20.8828C70.2106 20.7422 70.3213 20.5677 70.3994 20.3594L71.29 20.6094C71.1963 20.9115 71.0387 21.1771 70.8174 21.4062C70.596 21.6328 70.3226 21.8099 69.9971 21.9375C69.6715 22.0625 69.3057 22.125 68.8994 22.125ZM72.7861 24.25V16H73.6768V16.9531H73.7861C73.8538 16.849 73.9476 16.7161 74.0674 16.5547C74.1898 16.3906 74.3643 16.2448 74.5908 16.1172C74.82 15.987 75.1299 15.9219 75.5205 15.9219C76.0257 15.9219 76.471 16.0482 76.8564 16.3008C77.2419 16.5534 77.5426 16.9115 77.7588 17.375C77.9749 17.8385 78.083 18.3854 78.083 19.0156C78.083 19.651 77.9749 20.2018 77.7588 20.668C77.5426 21.1315 77.2432 21.4909 76.8604 21.7461C76.4775 21.9987 76.0361 22.125 75.5361 22.125C75.1507 22.125 74.8421 22.0612 74.6104 21.9336C74.3786 21.8034 74.2002 21.6562 74.0752 21.4922C73.9502 21.3255 73.8538 21.1875 73.7861 21.0781H73.708V24.25H72.7861ZM73.6924 19C73.6924 19.4531 73.7588 19.8529 73.8916 20.1992C74.0244 20.543 74.2184 20.8125 74.4736 21.0078C74.7288 21.2005 75.0413 21.2969 75.4111 21.2969C75.7965 21.2969 76.1182 21.1953 76.376 20.9922C76.6364 20.7865 76.8317 20.5104 76.9619 20.1641C77.0947 19.8151 77.1611 19.4271 77.1611 19C77.1611 18.5781 77.096 18.1979 76.9658 17.8594C76.8382 17.5182 76.6442 17.2487 76.3838 17.0508C76.126 16.8503 75.8018 16.75 75.4111 16.75C75.0361 16.75 74.721 16.8451 74.4658 17.0352C74.2106 17.2227 74.0179 17.4857 73.8877 17.8242C73.7575 18.1602 73.6924 18.5521 73.6924 19ZM80.4111 20.6406L83.3018 16H84.3643V22H83.4424V17.3594L80.5674 22H79.4893V16H80.4111V20.6406ZM87.8184 22.1406C87.4382 22.1406 87.0931 22.069 86.7832 21.9258C86.4733 21.7799 86.2272 21.5703 86.0449 21.2969C85.8626 21.0208 85.7715 20.6875 85.7715 20.2969C85.7715 19.9531 85.8392 19.6745 85.9746 19.4609C86.11 19.2448 86.291 19.0755 86.5176 18.9531C86.7441 18.8307 86.9941 18.7396 87.2676 18.6797C87.5436 18.6172 87.821 18.5677 88.0996 18.5313C88.4642 18.4844 88.7598 18.4492 88.9863 18.4258C89.2155 18.3997 89.3822 18.3568 89.4863 18.2969C89.5931 18.237 89.6465 18.1328 89.6465 17.9844V17.9531C89.6465 17.5677 89.541 17.2682 89.3301 17.0547C89.1217 16.8411 88.8053 16.7344 88.3809 16.7344C87.9408 16.7344 87.5957 16.8307 87.3457 17.0234C87.0957 17.2161 86.9199 17.4219 86.8184 17.6406L85.9434 17.3281C86.0996 16.9635 86.3079 16.6797 86.5684 16.4766C86.8314 16.2708 87.1178 16.1276 87.4277 16.0469C87.7402 15.9635 88.0475 15.9219 88.3496 15.9219C88.5423 15.9219 88.7637 15.9453 89.0137 15.9922C89.2663 16.0365 89.5098 16.1289 89.7441 16.2695C89.9811 16.4102 90.1777 16.6224 90.334 16.9062C90.4902 17.1901 90.5684 17.5703 90.5684 18.0469V22H89.6465V21.1875H89.5996C89.5371 21.3177 89.4329 21.457 89.2871 21.6055C89.1413 21.7539 88.9473 21.8802 88.7051 21.9844C88.4629 22.0885 88.1673 22.1406 87.8184 22.1406ZM87.959 21.3125C88.3236 21.3125 88.6309 21.2409 88.8809 21.0977C89.1335 20.9544 89.3236 20.7695 89.4512 20.543C89.5814 20.3164 89.6465 20.0781 89.6465 19.8281V18.9844C89.6074 19.0312 89.5215 19.0742 89.3887 19.1133C89.2585 19.1497 89.1074 19.1823 88.9355 19.2109C88.7663 19.237 88.6009 19.2604 88.4395 19.2812C88.2806 19.2995 88.1517 19.3151 88.0527 19.3281C87.8132 19.3594 87.5892 19.4102 87.3809 19.4805C87.1751 19.5482 87.0085 19.651 86.8809 19.7891C86.7559 19.9245 86.6934 20.1094 86.6934 20.3437C86.6934 20.6641 86.8118 20.9062 87.0488 21.0703C87.2884 21.2318 87.5918 21.3125 87.959 21.3125ZM91.7197 22V21.1406H91.9385C92.1182 21.1406 92.2679 21.1055 92.3877 21.0352C92.5075 20.9622 92.6038 20.8359 92.6768 20.6562C92.7523 20.474 92.8096 20.2214 92.8486 19.8984C92.8903 19.5729 92.9202 19.1589 92.9385 18.6562L93.0479 16H97.0479V22H96.126V16.8594H93.9229L93.8291 19C93.8083 19.4922 93.764 19.9258 93.6963 20.3008C93.6312 20.6732 93.5309 20.9857 93.3955 21.2383C93.2627 21.4909 93.0856 21.681 92.8643 21.8086C92.6429 21.9362 92.3656 22 92.0322 22H91.7197ZM99.5361 18.1719H101.255C101.958 18.1719 102.496 18.3503 102.868 18.707C103.241 19.0638 103.427 19.5156 103.427 20.0625C103.427 20.4219 103.343 20.7487 103.177 21.043C103.01 21.3346 102.765 21.5677 102.442 21.7422C102.119 21.9141 101.724 22 101.255 22H98.7393V16H99.6611V21.1406H101.255C101.619 21.1406 101.919 21.0443 102.153 20.8516C102.388 20.6589 102.505 20.4115 102.505 20.1094C102.505 19.7917 102.388 19.5326 102.153 19.332C101.919 19.1315 101.619 19.0312 101.255 19.0312H99.5361V18.1719ZM104.38 22V16H105.302V22H104.38ZM114.536 13.75L115.005 14.3125C114.823 14.4896 114.612 14.6133 114.372 14.6836C114.132 14.7539 113.862 14.7969 113.56 14.8125C113.257 14.8281 112.922 14.8437 112.552 14.8594C112.135 14.875 111.79 14.9766 111.517 15.1641C111.243 15.3516 111.032 15.6224 110.884 15.9766C110.735 16.3307 110.64 16.7656 110.599 17.2812H110.677C110.88 16.9062 111.161 16.6302 111.521 16.4531C111.88 16.276 112.265 16.1875 112.677 16.1875C113.146 16.1875 113.567 16.2969 113.942 16.5156C114.317 16.7344 114.614 17.0586 114.833 17.4883C115.052 17.918 115.161 18.4479 115.161 19.0781C115.161 19.7057 115.049 20.2474 114.825 20.7031C114.604 21.1589 114.293 21.5104 113.892 21.7578C113.493 22.0026 113.026 22.125 112.489 22.125C111.953 22.125 111.483 21.9987 111.079 21.7461C110.675 21.4909 110.362 21.1133 110.138 20.6133C109.914 20.1107 109.802 19.4896 109.802 18.75V18.1094C109.802 16.7734 110.028 15.7604 110.481 15.0703C110.937 14.3802 111.622 14.0234 112.536 14C112.859 13.9896 113.147 13.987 113.399 13.9922C113.652 13.9974 113.872 13.9857 114.06 13.957C114.247 13.9284 114.406 13.8594 114.536 13.75ZM112.489 21.2969C112.851 21.2969 113.162 21.2057 113.423 21.0234C113.686 20.8411 113.888 20.5846 114.028 20.2539C114.169 19.9206 114.239 19.5286 114.239 19.0781C114.239 18.6406 114.168 18.2682 114.024 17.9609C113.884 17.6536 113.682 17.4193 113.419 17.2578C113.156 17.0964 112.841 17.0156 112.474 17.0156C112.205 17.0156 111.965 17.0612 111.751 17.1523C111.537 17.2435 111.355 17.3776 111.204 17.5547C111.053 17.7318 110.936 17.9479 110.853 18.2031C110.772 18.4583 110.729 18.75 110.724 19.0781C110.724 19.75 110.881 20.2878 111.196 20.6914C111.511 21.0951 111.942 21.2969 112.489 21.2969ZM119.087 22.125C118.509 22.125 118.01 21.9974 117.591 21.7422C117.174 21.4844 116.853 21.125 116.626 20.6641C116.402 20.2005 116.29 19.6615 116.29 19.0469C116.29 18.4323 116.402 17.8906 116.626 17.4219C116.853 16.9505 117.168 16.5833 117.571 16.3203C117.978 16.0547 118.451 15.9219 118.993 15.9219C119.306 15.9219 119.614 15.974 119.919 16.0781C120.224 16.1823 120.501 16.3516 120.751 16.5859C121.001 16.8177 121.2 17.125 121.349 17.5078C121.497 17.8906 121.571 18.362 121.571 18.9219V19.3125H116.946V18.5156H120.634C120.634 18.1771 120.566 17.875 120.431 17.6094C120.298 17.3437 120.108 17.1341 119.86 16.9805C119.616 16.8268 119.326 16.75 118.993 16.75C118.626 16.75 118.308 16.8411 118.04 17.0234C117.774 17.2031 117.57 17.4375 117.427 17.7266C117.284 18.0156 117.212 18.3255 117.212 18.6562V19.1875C117.212 19.6406 117.29 20.0247 117.446 20.3398C117.605 20.6523 117.825 20.8906 118.106 21.0547C118.388 21.2161 118.715 21.2969 119.087 21.2969C119.329 21.2969 119.548 21.263 119.743 21.1953C119.941 21.125 120.112 21.0208 120.255 20.8828C120.398 20.7422 120.509 20.5677 120.587 20.3594L121.478 20.6094C121.384 20.9115 121.226 21.1771 121.005 21.4062C120.784 21.6328 120.51 21.8099 120.185 21.9375C119.859 22.0625 119.493 22.125 119.087 22.125ZM122.599 20.4687H123.583C123.604 20.7396 123.726 20.9453 123.95 21.0859C124.177 21.2266 124.471 21.2969 124.833 21.2969C125.203 21.2969 125.519 21.2214 125.782 21.0703C126.045 20.9167 126.177 20.6693 126.177 20.3281C126.177 20.1276 126.127 19.9531 126.028 19.8047C125.929 19.6536 125.79 19.5365 125.61 19.4531C125.431 19.3698 125.218 19.3281 124.974 19.3281H123.942V18.5H124.974C125.341 18.5 125.612 18.4167 125.786 18.25C125.963 18.0833 126.052 17.875 126.052 17.625C126.052 17.3568 125.957 17.1419 125.767 16.9805C125.576 16.8164 125.307 16.7344 124.958 16.7344C124.606 16.7344 124.313 16.8138 124.079 16.9727C123.845 17.1289 123.721 17.3307 123.708 17.5781H122.739C122.75 17.2552 122.849 16.9701 123.036 16.7227C123.224 16.4727 123.479 16.2773 123.802 16.1367C124.125 15.9935 124.494 15.9219 124.911 15.9219C125.333 15.9219 125.699 15.9961 126.009 16.1445C126.321 16.2904 126.562 16.4896 126.731 16.7422C126.903 16.9922 126.989 17.276 126.989 17.5937C126.989 17.9323 126.894 18.2057 126.704 18.4141C126.514 18.6224 126.276 18.7708 125.989 18.8594V18.9219C126.216 18.9375 126.412 19.0104 126.579 19.1406C126.748 19.2682 126.88 19.4362 126.974 19.6445C127.067 19.8503 127.114 20.0781 127.114 20.3281C127.114 20.6927 127.017 21.0104 126.821 21.2812C126.626 21.5495 126.358 21.7578 126.017 21.9062C125.675 22.0521 125.286 22.125 124.849 22.125C124.424 22.125 124.044 22.056 123.708 21.918C123.372 21.7773 123.105 21.5833 122.907 21.3359C122.712 21.0859 122.609 20.7969 122.599 20.4687ZM133.94 22.125C133.378 22.125 132.894 21.9922 132.487 21.7266C132.081 21.4609 131.769 21.0951 131.55 20.6289C131.331 20.1628 131.222 19.6302 131.222 19.0312C131.222 18.4219 131.334 17.8841 131.558 17.418C131.784 16.9492 132.099 16.5833 132.503 16.3203C132.909 16.0547 133.383 15.9219 133.925 15.9219C134.347 15.9219 134.727 16 135.065 16.1562C135.404 16.3125 135.681 16.5312 135.897 16.8125C136.114 17.0937 136.248 17.4219 136.3 17.7969H135.378C135.308 17.5234 135.151 17.2812 134.909 17.0703C134.67 16.8568 134.347 16.75 133.94 16.75C133.581 16.75 133.266 16.8437 132.995 17.0312C132.727 17.2161 132.517 17.4779 132.366 17.8164C132.218 18.1523 132.144 18.5469 132.144 19C132.144 19.4635 132.216 19.8672 132.362 20.2109C132.511 20.5547 132.719 20.8216 132.987 21.0117C133.258 21.2018 133.576 21.2969 133.94 21.2969C134.18 21.2969 134.397 21.2552 134.593 21.1719C134.788 21.0885 134.953 20.9688 135.089 20.8125C135.224 20.6562 135.321 20.4687 135.378 20.25H136.3C136.248 20.6042 136.119 20.9232 135.913 21.207C135.71 21.4883 135.44 21.7122 135.104 21.8789C134.771 22.043 134.383 22.125 133.94 22.125ZM137.647 22V16H140.101C140.746 16 141.259 16.1458 141.64 16.4375C142.02 16.7292 142.21 17.1146 142.21 17.5937C142.21 17.9583 142.102 18.2409 141.886 18.4414C141.67 18.6393 141.392 18.7734 141.054 18.8438C141.275 18.875 141.49 18.9531 141.698 19.0781C141.909 19.2031 142.084 19.375 142.222 19.5938C142.36 19.8099 142.429 20.0755 142.429 20.3906C142.429 20.6979 142.351 20.9727 142.194 21.2148C142.038 21.457 141.814 21.6484 141.522 21.7891C141.231 21.9297 140.882 22 140.476 22H137.647ZM138.522 21.1562H140.476C140.793 21.1562 141.042 21.0807 141.222 20.9297C141.401 20.7786 141.491 20.5729 141.491 20.3125C141.491 20.0026 141.401 19.7591 141.222 19.582C141.042 19.4023 140.793 19.3125 140.476 19.3125H138.522V21.1562ZM138.522 18.5156H140.101C140.348 18.5156 140.56 18.4818 140.737 18.4141C140.914 18.3437 141.05 18.2448 141.144 18.1172C141.24 17.987 141.288 17.8333 141.288 17.6562C141.288 17.4036 141.183 17.2057 140.972 17.0625C140.761 16.9167 140.47 16.8438 140.101 16.8438H138.522V18.5156ZM146.34 22.125C145.762 22.125 145.263 21.9974 144.844 21.7422C144.427 21.4844 144.105 21.125 143.879 20.6641C143.655 20.2005 143.543 19.6615 143.543 19.0469C143.543 18.4323 143.655 17.8906 143.879 17.4219C144.105 16.9505 144.421 16.5833 144.824 16.3203C145.23 16.0547 145.704 15.9219 146.246 15.9219C146.559 15.9219 146.867 15.974 147.172 16.0781C147.477 16.1823 147.754 16.3516 148.004 16.5859C148.254 16.8177 148.453 17.125 148.602 17.5078C148.75 17.8906 148.824 18.362 148.824 18.9219V19.3125H144.199V18.5156H147.887C147.887 18.1771 147.819 17.875 147.684 17.6094C147.551 17.3437 147.361 17.1341 147.113 16.9805C146.868 16.8268 146.579 16.75 146.246 16.75C145.879 16.75 145.561 16.8411 145.293 17.0234C145.027 17.2031 144.823 17.4375 144.68 17.7266C144.536 18.0156 144.465 18.3255 144.465 18.6562V19.1875C144.465 19.6406 144.543 20.0247 144.699 20.3398C144.858 20.6523 145.078 20.8906 145.359 21.0547C145.641 21.2161 145.967 21.2969 146.34 21.2969C146.582 21.2969 146.801 21.263 146.996 21.1953C147.194 21.125 147.365 21.0208 147.508 20.8828C147.651 20.7422 147.762 20.5677 147.84 20.3594L148.73 20.6094C148.637 20.9115 148.479 21.1771 148.258 21.4062C148.036 21.6328 147.763 21.8099 147.437 21.9375C147.112 22.0625 146.746 22.125 146.34 22.125ZM154.852 16V22H153.93V16H154.852ZM154.492 18.8594V19.7187C154.284 19.7969 154.077 19.8659 153.871 19.9258C153.665 19.9831 153.449 20.0286 153.223 20.0625C152.996 20.0937 152.747 20.1094 152.477 20.1094C151.797 20.1094 151.251 19.9258 150.84 19.5586C150.431 19.1914 150.227 18.6406 150.227 17.9062V15.9844H151.148V17.9062C151.148 18.2135 151.207 18.4661 151.324 18.6641C151.441 18.862 151.6 19.0091 151.801 19.1055C152.001 19.2018 152.227 19.25 152.477 19.25C152.867 19.25 153.22 19.2148 153.535 19.1445C153.853 19.0716 154.172 18.9766 154.492 18.8594ZM159.059 22.125C158.48 22.125 157.982 21.9974 157.562 21.7422C157.146 21.4844 156.824 21.125 156.598 20.6641C156.374 20.2005 156.262 19.6615 156.262 19.0469C156.262 18.4323 156.374 17.8906 156.598 17.4219C156.824 16.9505 157.139 16.5833 157.543 16.3203C157.949 16.0547 158.423 15.9219 158.965 15.9219C159.277 15.9219 159.586 15.974 159.891 16.0781C160.195 16.1823 160.473 16.3516 160.723 16.5859C160.973 16.8177 161.172 17.125 161.32 17.5078C161.469 17.8906 161.543 18.362 161.543 18.9219V19.3125H156.918V18.5156H160.605C160.605 18.1771 160.538 17.875 160.402 17.6094C160.27 17.3437 160.079 17.1341 159.832 16.9805C159.587 16.8268 159.298 16.75 158.965 16.75C158.598 16.75 158.28 16.8411 158.012 17.0234C157.746 17.2031 157.542 17.4375 157.398 17.7266C157.255 18.0156 157.184 18.3255 157.184 18.6562V19.1875C157.184 19.6406 157.262 20.0247 157.418 20.3398C157.577 20.6523 157.797 20.8906 158.078 21.0547C158.359 21.2161 158.686 21.2969 159.059 21.2969C159.301 21.2969 159.52 21.263 159.715 21.1953C159.913 21.125 160.083 21.0208 160.227 20.8828C160.37 20.7422 160.48 20.5677 160.559 20.3594L161.449 20.6094C161.355 20.9115 161.198 21.1771 160.977 21.4062C160.755 21.6328 160.482 21.8099 160.156 21.9375C159.831 22.0625 159.465 22.125 159.059 22.125ZM166.961 18.5781V19.4375H163.648V18.5781H166.961ZM163.867 16V22H162.945V16H163.867ZM167.664 16V22H166.742V16H167.664ZM170.27 20.6406L173.16 16H174.223V22H173.301V17.3594L170.426 22H169.348V16H170.27V20.6406ZM179.521 22V16.8438H177.927C177.567 16.8438 177.285 16.9271 177.079 17.0937C176.873 17.2604 176.771 17.4896 176.771 17.7812C176.771 18.0677 176.863 18.293 177.048 18.457C177.235 18.6211 177.492 18.7031 177.817 18.7031H179.755V19.5625H177.817C177.411 19.5625 177.061 19.4909 176.767 19.3477C176.472 19.2044 176.246 19 176.087 18.7344C175.928 18.4661 175.849 18.1484 175.849 17.7812C175.849 17.4115 175.932 17.0937 176.099 16.8281C176.265 16.5625 176.504 16.3581 176.813 16.2148C177.126 16.0716 177.497 16 177.927 16H180.396V22H179.521ZM175.521 22L177.224 19.0156H178.224L176.521 22H175.521Z" fill="white"/>
</svg>
