<svg width="1395" height="605" viewBox="0 0 1395 605" fill="none" xmlns="http://www.w3.org/2000/svg">
<path d="M0 588.015C0 593.615 0 596.415 1.08993 598.555C2.04867 600.436 3.57847 601.966 5.46009 602.925C7.59921 604.015 10.3995 604.015 16 604.015H1373.37C1383 604.015 1387.82 604.015 1390.49 602.003C1392.82 600.25 1394.27 597.569 1394.46 594.662C1394.67 591.325 1392.03 587.296 1386.74 579.237L1085.93 120.775C1081.29 113.702 1078.97 110.165 1075.92 107.488C1073.23 105.117 1070.13 103.249 1066.78 101.972C1062.99 100.531 1058.78 100.129 1050.36 99.3246L17.5211 0.687927C11.447 0.107849 8.40987 -0.18219 6.06358 0.82251C4.00247 1.70514 2.29777 3.25476 1.22323 5.22266C0 7.46277 0 10.5137 0 16.6155V588.015Z" fill="url(#paint0_linear_1_2500)" fill-opacity="0.5"/>
<defs>
<linearGradient id="paint0_linear_1_2500" x1="701.5" y1="604.015" x2="701.5" y2="-0.985352" gradientUnits="userSpaceOnUse">
<stop stop-color="#C54AFE"/>
<stop offset="1" stop-color="#9945FF"/>
</linearGradient>
</defs>
</svg>
