<svg width="335" height="186" viewBox="0 0 335 186" fill="none" xmlns="http://www.w3.org/2000/svg">
<path d="M0 169.5C0 175.101 0 177.901 1.08993 180.04C2.04867 181.922 3.57847 183.451 5.46009 184.41C7.59921 185.5 10.3995 185.5 16 185.5H314.676C323.373 185.5 327.722 185.5 330.315 183.669C332.579 182.07 334.078 179.604 334.455 176.859C334.886 173.713 332.884 169.853 328.879 162.133L272.54 53.5226C268.269 45.2879 266.133 41.1706 263.066 38.0082C260.35 35.2083 257.114 32.9649 253.54 31.4035C249.503 29.64 244.898 29.0837 235.688 27.9712L17.9188 1.6646C11.7234 0.916185 8.62564 0.541979 6.22508 1.52057C4.11708 2.37991 2.36537 3.93275 1.25943 5.92247C0 8.18834 0 11.3086 0 17.5491V169.5Z" fill="url(#paint0_linear_1_1164)" fill-opacity="0.5"/>
<defs>
<linearGradient id="paint0_linear_1_1164" x1="170.5" y1="185.5" x2="170.5" y2="-0.5" gradientUnits="userSpaceOnUse">
<stop stop-color="#C54AFE"/>
<stop offset="1" stop-color="#9945FF"/>
</linearGradient>
</defs>
</svg>
