<svg width="5" height="10" viewBox="0 0 5 10" fill="none" xmlns="http://www.w3.org/2000/svg">
<path d="M0.990782 9.19355L4.87326 5.32258C4.91935 5.2765 4.95207 5.22658 4.97142 5.17282C4.99078 5.11905 5.0003 5.06145 4.99999 5.00001C4.99999 4.93856 4.99032 4.88096 4.97096 4.82719C4.95161 4.77343 4.91904 4.72351 4.87326 4.67742L0.990782 0.794942C0.883255 0.687415 0.748847 0.633652 0.587557 0.633652C0.426267 0.633652 0.288018 0.691255 0.172811 0.806463C0.0576038 0.92167 9.01284e-10 1.05608 1.22902e-09 1.20969C1.55676e-09 1.3633 0.0576038 1.49771 0.172811 1.61291L3.5599 5.00001L0.172811 8.3871C0.0652843 8.49462 0.0115204 8.62719 0.0115204 8.78479C0.0115204 8.9424 0.0691242 9.07865 0.184331 9.19355C0.299539 9.30875 0.433947 9.36636 0.587557 9.36636C0.741167 9.36636 0.875575 9.30875 0.990782 9.19355Z" fill="white"/>
</svg>
