<svg width="74" height="90" viewBox="0 0 74 90" fill="none" xmlns="http://www.w3.org/2000/svg">
<g filter="url(#filter0_dd_1_581)">
<g filter="url(#filter1_biii_1_581)">
<path d="M5 13V77C5 79.1217 5.83139 81.1566 7.31127 82.6568C8.79114 84.1571 10.7983 85 12.8912 85H60.2381C62.331 85 64.3381 84.1571 65.818 82.6568C67.2979 81.1566 68.1293 79.1217 68.1293 77V30.368C68.1291 29.3022 67.9189 28.2472 67.5111 27.265C67.1032 26.2827 66.5058 25.393 65.754 24.648L48.2356 7.28C46.7614 5.81863 44.7816 5.00026 42.7197 5H12.8912C10.7983 5 8.79114 5.84285 7.31127 7.34315C5.83139 8.84344 5 10.8783 5 13Z" fill="#815C98"/>
</g>
</g>
<path d="M36.0962 64.3179C31.0605 64.3179 26.6704 62.7385 22.9259 59.5798C19.4778 56.6713 17.3682 53.0678 16.5971 48.7691C16.4911 48.1779 16.9583 47.6512 17.559 47.6512H18.0871C18.5766 47.6512 18.9912 48.0066 19.0928 48.4855C19.8833 52.211 21.7744 55.3377 24.7659 57.8655C27.9781 60.5798 31.7549 61.9369 36.0962 61.9369C40.9319 61.9369 45.0335 60.3203 48.4012 57.0869C51.7688 53.8536 53.4534 49.9147 53.4551 45.2703C53.4567 40.6258 51.7721 36.6869 48.4012 33.4536C45.0302 30.2203 40.9286 28.6036 36.0962 28.6036C33.5288 28.6036 31.1167 29.1242 28.8601 30.1655C27.3063 30.8814 25.8778 31.7836 24.5748 32.872C23.9012 33.4346 24.3293 34.4631 25.207 34.4631H28.0362C28.5884 34.4631 29.0362 34.9108 29.0362 35.4631V35.8441C29.0362 36.3964 28.5885 36.8441 28.0362 36.8441H19.7374C19.1851 36.8441 18.7374 36.3964 18.7374 35.8441V27.9584C18.7374 27.4061 19.1851 26.9584 19.7374 26.9584H20.2173C20.7695 26.9584 21.2173 27.4061 21.2173 27.9584V30.1378C21.2173 31.0413 22.3508 31.5094 23.0471 30.9335C24.5237 29.712 26.1605 28.7076 27.9574 27.9203C30.5332 26.7917 33.2461 26.2258 36.0962 26.2227C38.8455 26.2227 41.4229 26.7195 43.8284 27.7131C46.2338 28.7068 48.335 30.0671 50.1321 31.7941C51.9291 33.5211 53.3459 35.5385 54.3825 37.8465C55.4191 40.1544 55.9365 42.629 55.9349 45.2703C55.9332 47.9115 55.4158 50.3862 54.3825 52.6941C53.3492 55.002 51.9324 57.0195 50.1321 58.7465C48.3317 60.4734 46.2305 61.8338 43.8284 62.8274C41.4262 63.8211 38.8489 64.3179 36.0962 64.3179ZM44.7341 53.7806C44.3473 54.1526 43.7357 54.1529 43.3486 53.7812L35.3052 46.0607C35.1087 45.8721 34.9977 45.6116 34.9977 45.3393V34.3655C34.9977 33.8132 35.4454 33.3655 35.9977 33.3655H36.4775C37.0298 33.3655 37.4775 33.8132 37.4775 34.3655V44.3489C37.4775 44.6211 37.5885 44.8816 37.7849 45.0702L45.0441 52.0399C45.4538 52.4333 45.454 53.0885 45.0446 53.4821L44.7341 53.7806Z" fill="#D795FF"/>
<defs>
<filter id="filter0_dd_1_581" x="0" y="0" width="73.1292" height="90" filterUnits="userSpaceOnUse" color-interpolation-filters="sRGB">
<feFlood flood-opacity="0" result="BackgroundImageFix"/>
<feColorMatrix in="SourceAlpha" type="matrix" values="0 0 0 0 0 0 0 0 0 0 0 0 0 0 0 0 0 0 127 0" result="hardAlpha"/>
<feOffset/>
<feGaussianBlur stdDeviation="2.5"/>
<feComposite in2="hardAlpha" operator="out"/>
<feColorMatrix type="matrix" values="0 0 0 0 0.8423 0 0 0 0 0.585 0 0 0 0 1 0 0 0 1 0"/>
<feBlend mode="normal" in2="BackgroundImageFix" result="effect1_dropShadow_1_581"/>
<feColorMatrix in="SourceAlpha" type="matrix" values="0 0 0 0 0 0 0 0 0 0 0 0 0 0 0 0 0 0 127 0" result="hardAlpha"/>
<feOffset/>
<feGaussianBlur stdDeviation="2"/>
<feComposite in2="hardAlpha" operator="out"/>
<feColorMatrix type="matrix" values="0 0 0 0 0.8423 0 0 0 0 0.585 0 0 0 0 1 0 0 0 1 0"/>
<feBlend mode="normal" in2="effect1_dropShadow_1_581" result="effect2_dropShadow_1_581"/>
<feBlend mode="normal" in="SourceGraphic" in2="effect2_dropShadow_1_581" result="shape"/>
</filter>
<filter id="filter1_biii_1_581" x="-5.01626" y="-5.01626" width="83.1618" height="100.033" filterUnits="userSpaceOnUse" color-interpolation-filters="sRGB">
<feFlood flood-opacity="0" result="BackgroundImageFix"/>
<feGaussianBlur in="BackgroundImageFix" stdDeviation="5.00813"/>
<feComposite in2="SourceAlpha" operator="in" result="effect1_backgroundBlur_1_581"/>
<feBlend mode="normal" in="SourceGraphic" in2="effect1_backgroundBlur_1_581" result="shape"/>
<feColorMatrix in="SourceAlpha" type="matrix" values="0 0 0 0 0 0 0 0 0 0 0 0 0 0 0 0 0 0 127 0" result="hardAlpha"/>
<feOffset dy="2.50406"/>
<feGaussianBlur stdDeviation="5.00813"/>
<feComposite in2="hardAlpha" operator="arithmetic" k2="-1" k3="1"/>
<feColorMatrix type="matrix" values="0 0 0 0 1 0 0 0 0 1 0 0 0 0 1 0 0 0 0.3 0"/>
<feBlend mode="normal" in2="shape" result="effect2_innerShadow_1_581"/>
<feColorMatrix in="SourceAlpha" type="matrix" values="0 0 0 0 0 0 0 0 0 0 0 0 0 0 0 0 0 0 127 0" result="hardAlpha"/>
<feOffset dy="-2.50406"/>
<feGaussianBlur stdDeviation="5.00813"/>
<feComposite in2="hardAlpha" operator="arithmetic" k2="-1" k3="1"/>
<feColorMatrix type="matrix" values="0 0 0 0 1 0 0 0 0 1 0 0 0 0 1 0 0 0 0.5 0"/>
<feBlend mode="normal" in2="effect2_innerShadow_1_581" result="effect3_innerShadow_1_581"/>
<feColorMatrix in="SourceAlpha" type="matrix" values="0 0 0 0 0 0 0 0 0 0 0 0 0 0 0 0 0 0 127 0" result="hardAlpha"/>
<feOffset dy="-2.50406"/>
<feGaussianBlur stdDeviation="1.25203"/>
<feComposite in2="hardAlpha" operator="arithmetic" k2="-1" k3="1"/>
<feColorMatrix type="matrix" values="0 0 0 0 0.879 0 0 0 0 0.725 0 0 0 0 1 0 0 0 0.5 0"/>
<feBlend mode="normal" in2="effect3_innerShadow_1_581" result="effect4_innerShadow_1_581"/>
</filter>
</defs>
</svg>
