<svg width="124" height="122" viewBox="0 0 124 122" fill="none" xmlns="http://www.w3.org/2000/svg">
<path d="M62.0577 92.0193C79.5916 91.9851 93.7628 78.1405 93.7099 61.0965C93.6569 44.0526 79.4 30.2634 61.8661 30.2975C44.3322 30.3317 30.1611 44.1763 30.214 61.2202C30.2669 78.2642 44.5238 92.0534 62.0577 92.0193Z" fill="url(#paint0_linear_1_977)"/>
<path d="M61.8562 21.258C67.5791 21.2468 72.2045 16.728 72.1873 11.165C72.1701 5.60204 67.5168 1.1014 61.7939 1.11258C56.071 1.12375 51.4456 5.64251 51.4628 11.2055C51.48 16.7685 56.1333 21.2691 61.8562 21.258Z" fill="white"/>
<path d="M62.1238 121.125C67.8467 121.114 72.4721 116.595 72.4549 111.032C72.4377 105.469 67.7844 100.969 62.0615 100.98C56.3386 100.991 51.7132 105.51 51.7304 111.073C51.7476 116.636 56.4009 121.136 62.1238 121.125Z" fill="white"/>
<path d="M32.8458 33.0029C36.8836 29.0614 36.8664 22.686 32.8075 18.7631C28.7486 14.8402 22.1849 14.8553 18.1471 18.7968C14.1092 22.7383 14.1264 29.1137 18.1853 33.0367C22.2442 36.9596 28.8079 36.9445 32.8458 33.0029Z" fill="white"/>
<path d="M105.775 103.464C109.813 99.5224 109.796 93.147 105.737 89.224C101.678 85.3011 95.1145 85.3162 91.0767 89.2578C87.0389 93.1993 87.056 99.5747 91.115 103.498C95.1739 107.421 101.738 107.405 105.775 103.464Z" fill="white"/>
<path d="M10.5585 71.3202C16.2814 71.3089 20.9068 66.7901 20.8896 61.2272C20.8723 55.6642 16.2191 51.1637 10.4961 51.1749C4.77316 51.1862 0.147756 55.705 0.164985 61.2679C0.182214 66.8309 4.83555 71.3314 10.5585 71.3202Z" fill="white"/>
<path d="M113.432 71.0939C119.155 71.0827 123.781 66.564 123.763 61.001C123.746 55.438 119.093 50.9373 113.37 50.9485C107.647 50.9597 103.022 55.4784 103.039 61.0414C103.056 66.6044 107.709 71.1051 113.432 71.0939Z" fill="white"/>
<path d="M105.594 32.8311C109.632 28.8896 109.614 22.5141 105.556 18.5912C101.497 14.6683 94.9329 14.6834 90.895 18.625C86.8572 22.5665 86.8744 28.9419 90.9333 32.8648C94.9922 36.7877 101.556 36.7726 105.594 32.8311Z" fill="white"/>
<path d="M33.0294 103.722C37.0672 99.7802 37.05 93.4048 32.9911 89.4819C28.9322 85.5589 22.3685 85.574 18.3307 89.5155C14.2928 93.4571 14.31 99.8325 18.3689 103.755C22.4278 107.678 28.9915 107.663 33.0294 103.722Z" fill="white"/>
<defs>
<linearGradient id="paint0_linear_1_977" x1="100.536" y1="11.9575" x2="-0.192807" y2="39.9381" gradientUnits="userSpaceOnUse">
<stop stop-color="white"/>
<stop offset="0.523958" stop-color="#D795FF"/>
<stop offset="1" stop-color="#7BC2FE"/>
</linearGradient>
</defs>
</svg>
