<svg width="341" height="171" viewBox="0 0 341 171" fill="none" xmlns="http://www.w3.org/2000/svg">
<rect x="23.0663" y="0.5" width="297.233" height="169.655" rx="19.5" stroke="url(#paint0_linear_1_1123)" stroke-dasharray="5 5"/>
<rect x="39.1349" y="17.6753" width="265.096" height="135.309" rx="20" fill="#9945FF"/>
<path d="M287.837 69.3411C291.982 73.9364 296.754 94.393 300.354 113.596C302.606 125.605 293.25 136.485 281.032 136.508L44.742 136.963C43.5757 136.965 42.6897 135.807 43.1674 134.743C43.2692 134.516 43.3257 134.32 43.3656 134.074C43.6326 132.432 44.5364 130.628 46.9939 126.531C47.857 125.092 48.8816 123.733 50.2089 122.707C55.8467 118.346 60.7314 119.379 62.6181 120.588C63.1263 120.943 64.3347 121.77 65.9721 122.86C67.4836 123.867 69.2085 124.933 70.9539 124.431C73.2731 123.764 74.8248 121.327 75.4144 119.832C76.0651 118.488 78.0171 113.633 80.6197 104.965C82.2761 98.0688 84.7743 98.0515 86.4546 99.4322C87.3145 100.139 87.4837 100.609 88.2703 101.396C90.3216 103.45 93.8907 105.502 95.6402 103.186C97.17 101.161 98.1884 97.955 98.6213 95.8931C100.139 90.0973 103.653 77.2457 105.562 72.2059C107.64 68.1816 110.317 68.9239 112.048 70.3272C112.864 70.989 113.407 71.9091 113.918 72.8274C116.21 76.9502 120.003 83.7297 121.394 86.0654C122.956 88.6861 124.792 88.6693 125.515 88.3333C125.982 88.0924 127.006 87.4455 128.188 86.4299C129.194 85.5648 130.169 84.4851 131.494 84.3977C132.205 84.3508 132.858 84.5133 133.353 84.7225C133.786 84.9055 134.14 85.2262 134.47 85.5607C134.816 85.9114 135.254 86.3538 135.721 86.8246C136.664 87.774 138.167 88.7145 139.156 87.8132C139.437 87.557 139.78 87.217 139.992 86.901C141.263 85.0008 143.253 78.0422 144.167 74.4738C144.421 73.5318 145.065 71.484 146.025 69.0938C146.883 66.9571 148.742 64.0918 150.501 65.5784C153.391 68.0217 155.221 77.9973 155.879 84.0495C156.747 91.2732 158.525 106.426 158.699 109.249C158.898 112.485 159.827 115.721 160.649 118.957C160.796 119.539 161.16 120.571 161.556 121.023C162.935 122.595 164.268 119.523 165.348 117.733C166.63 115.612 168.116 113.956 169.285 112.874C170.135 112.087 171.157 111.528 172.196 111.015C175.014 109.624 179.175 107.386 181.038 105.721C182.425 104.481 183.883 104.258 185.019 104.406C186.182 104.559 187.099 105.404 188.151 105.922C189.027 106.354 190.176 106.729 191.449 106.729C194.572 106.729 196.943 101.521 197.738 98.917C198.967 96.0611 201.642 89.7445 202.51 87.3254C203.384 84.8876 204.399 82.7773 206.124 80.3345C207 79.0926 208.034 77.8303 209.497 77.4183C211.475 76.8613 213.046 78.03 214.349 79.4888C215.644 80.9379 217.068 83.0288 218.918 82.4335C219.914 82.113 220.744 81.1443 221.496 79.8872C222.033 78.9892 222.561 78.08 222.984 77.1229C224.743 73.1455 227.187 63.6722 228.319 58.8504C228.898 57.0024 230.705 51.593 233.308 44.7388C236.951 38.0863 241.043 44.9908 242.634 49.2747C246.104 58.7664 253.348 78.3545 254.563 80.7736C256.081 83.7975 256.948 84.0495 259.551 84.0495C261.884 84.2189 265.605 80.0109 267.935 76.8684L267.969 76.8229C268.752 75.7676 269.564 74.671 270.821 74.2936C271.959 73.9518 272.868 75.0231 273.777 75.7894C275.617 77.3417 277.015 76.4976 277.553 75.7338C278.815 74.3229 281.123 71.8958 283.027 70.2715C284.46 69.0493 286.576 67.9426 287.837 69.3411Z" fill="url(#paint1_linear_1_1123)"/>
<rect x="0.248047" y="31.1748" width="165.195" height="69.5999" rx="15" fill="white"/>
<path d="M108.353 73.62H120.373V70.9658H112.451C113.543 66.6101 120.236 65.6573 120.236 60.8253C120.236 58.2391 118.461 56.3335 114.704 56.3335C112.382 56.3335 110.333 57.0141 108.968 57.6946L109.787 60.1447C111.016 59.5322 112.451 58.9877 114.226 58.9877C115.592 58.9877 116.89 59.6002 116.89 61.1656C116.89 64.7045 109.036 64.9768 108.353 73.62ZM120.714 69.4005H128.432V73.62H131.505V69.4005H134.1V66.8143H131.505V56.3335H129.251L120.714 67.3588V69.4005ZM124.197 66.9504L128.568 61.0975C128.568 61.5739 128.432 63.0712 128.432 64.4323V66.8824H126.383C125.768 66.8824 124.607 66.9504 124.197 66.9504Z" fill="#005893"/>
<path d="M21.0719 71.0351V65.6586H22.3695C23.5305 65.6586 24.4866 65.7947 25.1696 66.2031C25.8525 66.6114 26.2623 67.292 26.2623 68.3809C26.2623 70.2185 25.1696 71.0351 22.5744 71.0351H21.0719ZM17.9304 73.6213H22.5061C27.6282 73.6213 29.4721 71.3754 29.4721 68.2448C29.4721 66.135 28.5843 64.7058 27.0135 63.8891C25.7842 63.2086 24.2135 63.0044 22.3012 63.0044H21.0719V58.921H27.9697L28.7892 56.4028H17.8621V73.6213H17.9304ZM31.5893 73.6213H34.5942L38.487 68.0406C39.2383 67.0198 39.7846 65.9989 40.1261 65.4545H40.1944C40.1261 66.2031 40.0578 67.1559 40.0578 68.1087V73.5533H43.1311V61.303H40.1261L36.2333 66.8837C35.5504 67.9045 34.9357 68.9254 34.5942 69.4698H34.5259C34.5942 68.7212 34.6625 67.7684 34.6625 66.8156V61.371H31.5893V73.6213ZM48.3897 73.6213H51.5313V63.8891H55.2192L56.0387 61.303H44.6335V63.8891H48.3897V73.6213ZM57.1314 79.8145H60.2047V73.6213C60.8193 73.8255 61.434 73.8936 62.1169 73.8936C66.0097 73.8936 68.5366 71.2393 68.5366 67.4281C68.5366 63.4808 66.2146 60.9627 61.7755 60.9627C60.0681 60.9627 58.429 61.303 57.0631 61.7113V79.8145H57.1314ZM60.2047 70.9671V63.753C60.6828 63.6169 61.0925 63.5488 61.6389 63.5488C63.8926 63.5488 65.3268 64.7739 65.3268 67.4281C65.3268 69.8101 64.1658 71.3074 61.8438 71.3074C61.2291 71.3074 60.7511 71.1713 60.2047 70.9671ZM70.3806 73.6213H73.3856L77.2783 68.0406C78.0296 67.0198 78.5759 65.9989 78.9174 65.4545H78.9857C78.9174 66.2031 78.8491 67.1559 78.8491 68.1087V73.5533H81.9224V61.303H78.9174L75.0246 66.8837C74.3417 67.9045 73.727 68.9254 73.3856 69.4698H73.3173C73.3855 68.7212 73.4538 67.7684 73.4538 66.8156V61.371H70.3806V73.6213ZM84.381 73.6213H87.5225V68.517H89.3665C89.7079 68.517 90.0494 68.8573 90.4592 69.674L92.03 73.6213H95.3764L93.1227 68.9254C92.7129 68.1087 92.3031 67.6323 91.6885 67.4281V67.3601C92.7129 66.7475 92.8495 64.9781 93.4641 64.0933C93.669 63.8211 93.9422 63.685 94.352 63.685C94.5569 63.685 94.83 63.685 95.0349 63.8211V61.1668C94.6935 61.0307 94.0788 60.9627 93.7373 60.9627C92.6446 60.9627 91.9617 61.371 91.4836 62.0516C90.4592 63.5488 90.4592 66.135 88.9567 66.135H87.5225V61.303H84.381V73.6213ZM102.342 73.8936C104.05 73.8936 105.621 73.3491 106.577 72.6685L105.689 70.5587C104.801 71.0351 103.982 71.3754 102.821 71.3754C100.703 71.3754 99.3375 70.0143 99.3375 67.4962C99.3375 65.2503 100.703 63.4808 103.025 63.4808C104.255 63.4808 105.143 63.8211 106.03 64.4336V61.7794C105.347 61.371 104.255 60.9627 102.684 60.9627C98.996 60.9627 96.1276 63.685 96.1276 67.5642C96.1276 71.1032 98.3131 73.8936 102.342 73.8936Z" fill="#0BBBEF"/>
<path d="M144.277 69.4008C147.623 69.4008 150.355 66.6785 150.355 63.3437C150.355 60.0089 147.623 57.2866 144.277 57.2866C140.93 57.2866 138.198 60.0089 138.198 63.3437C138.267 66.6785 140.93 69.4008 144.277 69.4008Z" stroke="#005893" stroke-width="1.769"/>
<path d="M148.101 63.3446H144.755V60.0098H143.867V64.2293H148.101V63.3446Z" fill="#005893"/>
<path d="M201.073 102.956C201.073 94.6718 207.788 87.9561 216.073 87.9561H325.248C333.532 87.9561 340.248 94.6718 340.248 102.956V124.871C340.248 133.155 333.532 139.871 325.248 139.871H216.073C207.788 139.871 201.073 133.155 201.073 124.871V102.956Z" fill="white"/>
<mask id="mask0_1_1123" style="mask-type:luminance" maskUnits="userSpaceOnUse" x="223" y="104" width="96" height="19">
<path d="M318.016 104.92H223.208V122.618H318.016V104.92Z" fill="white"/>
</mask>
<g mask="url(#mask0_1_1123)">
<path d="M237.979 116.476C238.266 116.476 238.381 116.805 238.381 117.52C238.351 118.006 238.193 118.479 237.921 118.893C237.561 119.447 237.116 119.947 236.599 120.375C236.065 120.822 235.465 121.192 234.818 121.473C234.228 121.754 233.58 121.904 232.921 121.913C232.059 121.913 231.542 121.199 231.255 119.771C230.853 120.43 230.278 120.979 229.588 121.363C228.769 121.813 227.83 122.023 226.887 121.968C226.398 121.98 225.911 121.905 225.45 121.748C224.985 121.565 224.557 121.304 224.186 120.979C223.866 120.662 223.612 120.289 223.439 119.88C223.275 119.478 223.196 119.049 223.209 118.618C223.209 116.037 224.129 114.005 225.911 112.523C226.511 111.967 227.239 111.554 228.037 111.314C228.706 111.116 229.405 111.023 230.105 111.04C230.723 111.03 231.334 111.161 231.887 111.424C232.117 110.985 232.347 110.765 232.634 110.765C232.937 110.76 233.236 110.836 233.496 110.985C233.778 111.098 234.033 111.266 234.243 111.479C234.665 111.807 234.932 112.281 234.991 112.797C234.703 113.401 234.358 114.005 234.013 114.609C233.842 115.588 233.783 116.583 233.841 117.574C233.841 118.838 234.013 119.496 234.358 119.496C234.703 119.496 235.795 118.728 237.346 117.135C237.634 116.641 237.864 116.476 237.979 116.476ZM226.714 117.849C226.714 119.002 227.175 119.606 228.094 119.606C228.599 119.592 229.091 119.446 229.516 119.185C229.941 118.924 230.284 118.556 230.507 118.123C230.723 117.731 230.915 117.328 231.083 116.915C231.062 115.439 231.216 113.966 231.542 112.523C230.253 112.771 229.073 113.384 228.152 114.28C227.683 114.758 227.312 115.318 227.06 115.927C226.829 116.544 226.713 117.194 226.714 117.849Z" fill="#005893"/>
<path d="M248.666 115.009C248.666 114.514 248.379 114.239 247.747 114.239C247.364 114.239 246.905 114.624 246.369 115.394C245.866 116.156 245.496 116.993 245.278 117.87V117.925C245.294 118.463 245.371 118.998 245.508 119.52C245.639 119.893 245.716 120.282 245.737 120.675C245.737 121.17 245.048 121.665 243.727 122.215C243.544 122.283 243.35 122.32 243.153 122.325C242.968 122.322 242.787 122.264 242.636 122.16C242.489 122.051 242.387 121.895 242.349 121.72C242.185 121.203 242.107 120.665 242.119 120.125C242.119 119.465 242.119 118.805 242.177 118.2C242.234 117.594 242.234 117.045 242.292 116.55C242.349 116.055 242.349 115.614 242.407 115.174C242.45 114.865 242.469 114.552 242.464 114.239C242.464 113.744 242.234 113.469 241.718 113.469C241.201 113.469 240.626 114.019 239.995 115.119C239.46 115.915 239.126 116.819 239.019 117.76C239.01 118.372 239.087 118.982 239.249 119.575C239.38 119.948 239.458 120.337 239.478 120.73C239.478 121.225 238.789 121.72 237.469 122.27C237.285 122.338 237.091 122.375 236.894 122.38C236.709 122.377 236.529 122.319 236.377 122.215C236.23 122.106 236.129 121.95 236.09 121.775C235.929 121.183 235.852 120.572 235.861 119.96C235.813 118.396 235.909 116.832 236.148 115.284C236.389 113.854 236.936 112.487 237.756 111.269C237.858 111.098 237.995 110.948 238.158 110.829C238.333 110.723 238.528 110.648 238.731 110.609C239.249 110.609 239.766 110.994 240.168 111.819C240.297 112.004 240.394 112.209 240.454 112.424C240.734 111.999 241.132 111.656 241.603 111.434C242.063 111.198 242.574 111.066 243.096 111.049C243.773 111.041 244.428 111.276 244.933 111.709C245.173 111.908 245.368 112.151 245.508 112.424C245.649 112.697 245.708 113.001 245.68 113.304V113.579C246.068 113.031 246.604 112.594 247.23 112.314C247.86 112.032 248.545 111.882 249.24 111.874C249.588 111.856 249.938 111.893 250.273 111.984C250.608 112.094 250.92 112.262 251.192 112.479C251.415 112.68 251.591 112.923 251.709 113.194C251.826 113.473 251.885 113.773 251.881 114.074C251.881 114.624 251.824 115.229 251.766 115.779C251.709 116.33 251.537 116.77 251.422 117.209C251.307 117.65 251.192 118.035 251.077 118.365C251.011 118.635 250.973 118.912 250.962 119.19C250.962 119.355 251.02 119.465 251.135 119.465C251.463 119.409 251.764 119.255 251.996 119.025C252.341 118.75 252.685 118.42 253.03 118.09L254.006 117.154C254.293 116.88 254.523 116.715 254.638 116.715C254.867 116.715 254.982 116.99 254.982 117.484C254.982 118.53 254.408 119.575 253.317 120.62C252.381 121.552 251.106 122.104 249.756 122.16C248.608 122.16 248.034 121.17 248.034 119.19C248.045 118.485 248.141 117.783 248.321 117.1C248.511 116.416 248.626 115.716 248.666 115.009Z" fill="#005893"/>
<path d="M261.575 119.929C261.057 120.601 260.364 121.131 259.566 121.468C258.781 121.837 257.916 122.026 257.04 122.017C255.261 122.017 253.998 121.578 253.079 120.698C252.649 120.275 252.317 119.769 252.103 119.215C251.865 118.658 251.767 118.056 251.816 117.457C251.756 115.737 252.394 114.063 253.596 112.785C254.172 112.137 254.9 111.629 255.72 111.302C256.539 110.974 257.416 110.806 258.303 110.807C259.026 110.805 259.743 110.916 260.428 111.137C261.346 111.521 261.805 111.851 261.805 112.181C261.805 112.51 261.174 112.565 259.854 112.565C259.243 112.563 258.639 112.675 258.074 112.895C257.502 113.107 256.99 113.446 256.581 113.884C256.135 114.306 255.783 114.811 255.548 115.368C255.346 115.952 255.287 116.572 255.376 117.182C255.374 117.802 255.597 118.404 256.007 118.885C256.236 119.116 256.509 119.303 256.811 119.435C257.123 119.547 257.454 119.603 257.787 119.6C258.449 119.624 259.105 119.472 259.681 119.16C259.131 118.827 258.693 118.351 258.418 117.786C258.11 117.229 257.971 116.601 258.016 115.972C258 115.237 258.289 114.526 258.82 113.994C259.091 113.709 259.424 113.484 259.796 113.335C260.178 113.183 260.588 113.108 261.001 113.115C261.354 113.082 261.709 113.129 262.039 113.254C262.368 113.378 262.662 113.575 262.896 113.829C263.283 114.361 263.484 114.995 263.47 115.643C263.451 116.46 263.255 117.264 262.896 118.006H263.011C263.342 118.005 263.669 117.941 263.975 117.818C264.28 117.695 264.557 117.517 264.791 117.292L265.307 116.797L265.48 116.632C265.536 116.577 265.594 116.577 265.709 116.577C265.938 116.577 266.054 116.852 266.054 117.347C266.081 117.738 266.023 118.132 265.881 118.501C265.734 118.861 265.498 119.181 265.192 119.435C264.665 119.867 263.992 120.101 263.298 120.094C262.719 120.091 262.143 120.036 261.575 119.929ZM261.403 117.292C261.651 116.792 261.788 116.25 261.805 115.698C261.805 115.203 261.633 114.928 261.288 114.928C261.21 114.939 261.136 114.97 261.075 115.019C261.015 115.067 260.969 115.131 260.944 115.203C260.851 115.372 260.811 115.563 260.83 115.753C260.831 116.036 260.889 116.316 261.001 116.577C261.015 116.716 261.058 116.85 261.127 116.974C261.196 117.096 261.29 117.204 261.403 117.292Z" fill="#005893"/>
<path d="M315.581 122.098C316.059 122.098 316.526 121.961 316.924 121.706C317.322 121.451 317.632 121.089 317.815 120.664C317.998 120.24 318.045 119.773 317.952 119.323C317.859 118.872 317.628 118.458 317.291 118.133C316.952 117.808 316.522 117.587 316.053 117.498C315.584 117.408 315.097 117.454 314.656 117.63C314.214 117.806 313.836 118.103 313.571 118.485C313.304 118.867 313.163 119.316 313.163 119.775C313.186 120.384 313.449 120.962 313.897 121.393C314.345 121.824 314.947 122.076 315.581 122.098Z" fill="#C1E9FB"/>
<path d="M291.002 116.896C291.289 116.896 291.404 117.226 291.404 117.941C291.354 118.434 291.177 118.907 290.887 119.316C290.526 119.872 290.081 120.374 289.564 120.802C289.03 121.25 288.429 121.621 287.782 121.902C287.213 122.183 286.584 122.333 285.943 122.342C285.461 122.344 284.987 122.231 284.563 122.012C284.209 121.802 283.929 121.496 283.758 121.132C283.471 120.637 283.298 119.647 283.069 118.161C282.957 117.144 282.784 116.134 282.551 115.135C282.145 115.074 281.765 114.903 281.459 114.64C281.3 114.555 281.178 114.418 281.114 114.255C281.049 114.097 281.009 113.93 280.999 113.76C280.975 113.604 281.016 113.446 281.114 113.32L281.459 112.99C281.819 112.833 282.213 112.757 282.609 112.77C283.009 112.776 283.402 112.87 283.758 113.045C284.197 112.709 284.567 112.298 284.85 111.835C285.154 111.236 285.292 110.573 285.253 109.909C285.256 109.553 285.198 109.201 285.081 108.864C284.938 108.53 284.722 108.23 284.448 107.983C283.748 107.455 282.865 107.2 281.976 107.268C281.124 107.248 280.272 107.341 279.447 107.543C278.936 107.693 278.436 107.877 277.952 108.093C277.55 108.313 277.148 108.478 276.802 108.643C276.518 108.792 276.205 108.886 275.883 108.919C275.595 108.919 275.48 108.809 275.48 108.643C275.55 108.316 275.709 108.013 275.94 107.763C276.309 107.309 276.756 106.918 277.263 106.608C278.675 105.719 280.311 105.209 281.999 105.131C283.688 105.054 285.368 105.412 286.862 106.168C287.53 106.514 288.087 107.028 288.472 107.653C288.87 108.28 289.052 109.012 288.989 109.744C289.044 110.916 288.655 112.068 287.898 112.99C287.196 113.842 286.261 114.49 285.196 114.86C285.447 115.39 285.639 115.943 285.77 116.51C285.943 117.116 286.058 117.611 286.23 118.106C286.342 118.531 286.517 118.938 286.748 119.316C286.826 119.439 286.922 119.551 287.035 119.647C287.15 119.757 287.265 119.757 287.437 119.812C287.796 119.745 288.132 119.594 288.415 119.371C288.819 119.085 289.186 118.753 289.507 118.381C289.852 118.051 290.196 117.721 290.484 117.391C290.656 117.006 290.887 116.896 291.002 116.896ZM280.654 108.643C280.884 108.643 280.941 108.919 280.941 109.414C280.932 109.911 280.893 110.407 280.827 110.899C280.717 111.74 280.525 112.569 280.252 113.375C279.878 114.565 279.59 115.778 279.389 117.006V120.362C279.431 120.707 279.35 121.056 279.159 121.352C278.972 121.643 278.716 121.887 278.412 122.067L277.55 122.452C277.259 122.57 276.945 122.626 276.63 122.617C275.94 122.617 275.653 121.902 275.653 120.417C275.727 118.523 276.095 116.65 276.745 114.86C277.253 113.067 278.007 111.347 278.987 109.744C279.17 109.467 279.403 109.225 279.677 109.029C279.804 108.905 279.956 108.806 280.124 108.741C280.292 108.674 280.472 108.641 280.654 108.643Z" fill="#C1E9FB"/>
<path d="M311.553 116.902C311.84 116.902 311.955 117.232 311.955 117.947C311.906 118.438 311.727 118.911 311.438 119.32C311.078 119.876 310.632 120.376 310.116 120.804C309.581 121.252 308.982 121.622 308.335 121.903C307.684 122.185 306.98 122.335 306.266 122.343C305.951 122.347 305.639 122.291 305.347 122.178C305.056 122.08 304.798 121.91 304.6 121.683C304.194 121.265 303.968 120.716 303.968 120.145C303.975 119.512 304.071 118.883 304.255 118.276C304.485 117.562 304.657 116.847 304.887 116.078C305.381 114.691 305.689 113.251 305.806 111.79C305.796 111.513 305.758 111.237 305.691 110.966C305.646 110.868 305.564 110.79 305.461 110.746C305.353 110.701 305.235 110.683 305.117 110.691C304.508 110.764 303.952 111.06 303.565 111.516C302.983 112.166 302.465 112.865 302.014 113.604C300.984 115.356 300.395 117.313 300.29 119.32L300.405 119.98C300.453 120.197 300.472 120.418 300.462 120.639C300.467 120.912 300.388 121.18 300.233 121.409C300.111 121.645 299.934 121.853 299.716 122.013C299.256 122.403 298.663 122.619 298.049 122.618C297.879 122.622 297.715 122.563 297.589 122.453C297.462 122.349 297.364 122.217 297.302 122.068C297.119 121.669 297.021 121.24 297.015 120.804C297.069 120.118 297.184 119.438 297.359 118.771C297.589 117.892 297.876 116.957 298.164 116.023C298.911 113.439 299.313 111.516 299.313 110.252C299.322 109.73 299.244 109.211 299.084 108.713C298.999 108.53 298.859 108.377 298.681 108.273C298.6 108.217 298.505 108.177 298.406 108.158C298.307 108.139 298.204 108.141 298.107 108.163C297.244 108.163 296.383 108.768 295.578 109.922C294.774 111.076 293.97 112.89 293.338 115.363C293.165 116.023 293.05 116.572 292.935 117.012V117.452C293.176 118.352 293.33 119.272 293.395 120.2C293.437 120.553 293.366 120.91 293.191 121.224C293.017 121.538 292.747 121.794 292.417 121.958L291.555 122.343C291.264 122.456 290.951 122.511 290.636 122.508C289.832 122.508 289.43 121.793 289.43 120.31C289.43 118.826 289.832 116.023 290.636 111.79C290.923 110.252 291.096 109.427 291.096 109.208C291.096 107.999 290.751 107.339 290.119 107.339C289.897 107.342 289.68 107.398 289.487 107.504C289.305 107.645 289.114 107.773 288.913 107.889C288.707 108.018 288.515 108.165 288.338 108.328C288.148 108.44 287.928 108.498 287.706 108.493C287.476 108.493 287.361 108.273 287.361 107.889C287.36 107.463 287.478 107.045 287.706 106.679C287.916 106.324 288.211 106.023 288.568 105.8C289.385 105.233 290.375 104.943 291.383 104.975C292.819 104.975 293.682 105.635 293.912 106.899C293.981 107.299 294.02 107.703 294.027 108.108C295.176 106.02 296.67 104.92 298.508 104.92C300.462 104.92 301.612 105.8 301.841 107.614C301.937 108.158 301.976 108.71 301.956 109.262V109.427C302.99 108.053 304.197 107.394 305.634 107.394C307.646 107.394 308.622 108.548 308.622 110.856C308.623 112.046 308.449 113.23 308.105 114.373C307.761 115.748 307.53 116.682 307.415 117.287C307.278 117.734 307.201 118.196 307.186 118.661C307.186 119.265 307.415 119.54 307.818 119.54C308.22 119.54 309.254 118.771 310.863 117.177C311.077 117.052 311.309 116.959 311.553 116.902Z" fill="#C1E9FB"/>
<path d="M277.6 113.839C278.002 113.839 278.232 114.224 278.232 114.94C278.232 115.754 278.056 116.559 277.714 117.304C277.323 118.192 276.779 119.009 276.105 119.724C275.35 120.549 274.431 121.222 273.403 121.705C272.218 122.301 270.89 122.586 269.552 122.529C268.109 122.533 266.716 122.023 265.643 121.1C264.551 120.165 263.976 118.79 263.976 116.974C263.958 115.311 264.23 113.657 264.781 112.08C265.238 110.71 265.938 109.426 266.85 108.284C267.659 107.343 268.631 106.543 269.724 105.919C270.672 105.348 271.767 105.043 272.886 105.039C274.611 105.039 275.473 105.754 275.473 107.239C275.527 107.946 275.367 108.652 275.013 109.274C274.668 109.769 274.381 110.044 274.035 110.044C273.82 110.039 273.607 110.002 273.403 109.934C273.198 109.852 273.02 109.719 272.886 109.549C272.752 109.379 272.574 109.246 272.369 109.164C272.179 109.051 271.959 108.994 271.736 108.999C271.334 108.999 270.242 108.944 269.322 110.374C268.963 110.86 268.691 111.399 268.518 111.97C267.991 113.306 267.718 114.722 267.712 116.149C267.781 116.657 267.953 117.146 268.219 117.59C268.485 118.034 268.841 118.422 269.265 118.735C269.771 119.063 270.379 119.219 270.989 119.174C271.534 119.126 272.063 118.974 272.546 118.729C273.03 118.483 273.458 118.149 273.805 117.745L275.358 116.094C275.875 115.545 276.335 114.995 276.737 114.499C277.082 114.114 277.37 113.839 277.6 113.839Z" fill="#C1E9FB"/>
</g>
<defs>
<linearGradient id="paint0_linear_1_1123" x1="171.683" y1="0" x2="171.683" y2="170.655" gradientUnits="userSpaceOnUse">
<stop stop-color="#00FFB7"/>
<stop offset="1" stop-color="#D795FF"/>
</linearGradient>
<linearGradient id="paint1_linear_1_1123" x1="173.339" y1="41.9751" x2="173.339" y2="136.968" gradientUnits="userSpaceOnUse">
<stop stop-color="#EB00FF"/>
<stop offset="1" stop-color="#D3FFFC" stop-opacity="0"/>
</linearGradient>
</defs>
</svg>
