<svg width="119" height="120" viewBox="0 0 119 120" fill="none" xmlns="http://www.w3.org/2000/svg">
<path d="M115.923 54.3662C115.194 53.2032 114.73 51.8882 114.566 50.5183C114.495 50.0086 114.431 49.4962 114.398 48.9823C114.339 48.0816 114.542 47.21 114.738 46.3424C115.12 44.6566 115.367 42.9668 115.066 41.2331C114.684 38.7784 113.631 36.4821 112.028 34.6091C111.279 33.7468 110.366 33.0823 109.45 32.4237C108.414 31.6797 107.437 30.8815 106.817 29.718C106.774 29.6361 106.705 29.5689 106.654 29.4907C106.08 28.6006 105.529 27.6991 105.321 26.6311C105.253 26.2786 105.188 25.9251 105.107 25.5751C104.88 24.5876 104.716 23.5769 104.397 22.6205C103.725 20.6046 102.474 18.9699 100.929 17.5624C99.4792 16.2186 97.7065 15.2891 95.7908 14.8686C95.2509 14.7503 94.713 14.6236 94.1772 14.4889C93.3783 14.3245 92.615 14.0147 91.9242 13.5741C91.456 13.2489 90.9955 12.9107 90.5158 12.6042C89.7692 12.1048 89.1323 11.453 88.6455 10.69C88.2717 10.1361 87.906 9.57668 87.5355 9.01988C86.7863 7.86981 85.828 6.87646 84.7121 6.09383C82.5651 4.60921 80.2113 3.73826 77.6007 3.74042C76.7434 3.78194 75.8894 3.88057 75.0449 4.03633C74.3915 4.12537 73.7434 4.25233 73.09 4.34833C72.2224 4.47313 71.3799 4.26169 70.5346 4.11601C69.3142 3.94465 68.1488 3.48842 67.1297 2.78259C66.7559 2.50971 66.3673 2.25459 65.9726 2.01459C65.4332 1.68604 64.8972 1.34524 64.3322 1.06852C62.765 0.332692 61.0542 -0.0321041 59.329 0.00221558C57.1387 -0.00138439 55.0661 0.47573 53.1876 1.67188C52.7062 1.97835 52.2368 2.30451 51.7535 2.60787C51.2824 2.90259 50.8038 3.1817 50.3257 3.46274C49.7603 3.7925 49.094 3.89593 48.4578 3.75242C47.7058 3.60266 46.9505 3.46442 46.2067 3.27794C44.4509 2.79627 42.6068 2.75091 40.8302 3.1457C38.3384 3.7349 36.113 4.82832 34.3701 6.78646C33.8458 7.37566 33.3981 8.03445 32.9085 8.65676C32.5151 9.1562 32.1141 9.64939 31.7115 10.1414C31.4082 10.522 30.9758 10.7733 30.4998 10.846C29.7282 10.9713 28.9597 11.134 28.183 11.2075C25.8895 11.3997 23.7001 12.2702 21.8849 13.7116C19.7742 15.3832 18.2607 17.4666 17.5468 20.1183C17.4091 20.6305 17.2517 21.1374 17.0888 21.6421C16.4905 23.606 15.1662 25.2581 13.397 26.2474C12.7413 26.622 12.0839 26.994 11.4369 27.384C10.6489 27.8426 9.93197 28.4182 9.31019 29.0916C6.60452 32.1105 5.34778 35.6104 5.90455 39.7235C6.03197 40.6657 6.14008 41.6264 5.93659 42.5725C5.77996 43.3033 5.54915 44.017 5.3678 44.7428C5.15466 45.5612 4.78395 46.328 4.27687 46.9988C3.79876 47.6496 3.30534 48.2887 2.82394 48.9372C2.03188 49.979 1.45038 51.1709 1.11311 52.4433C0.907738 53.2116 0.757474 53.994 0.663737 54.7845C0.418088 57.083 0.680226 59.3111 1.72194 61.4008C2.05543 62.0696 2.40966 62.7277 2.75305 63.3913C3.07571 64.0153 3.41698 64.6487 3.49494 65.3502C3.59433 66.247 3.9323 67.1021 3.88496 68.0249C3.86471 68.4253 3.97917 68.8309 3.99848 69.236C4.0437 70.1542 3.81454 71.0345 3.59998 71.9143C3.29239 73.1741 2.97138 74.431 2.95277 75.7502C3.03143 76.4479 3.06888 77.1537 3.19653 77.842C3.58608 80.1518 4.59317 82.3079 6.10663 84.0724C6.84476 84.9205 7.73667 85.5892 8.61658 86.2695C9.55914 86.9711 10.3606 87.8511 10.9767 88.8615C11.6192 89.9106 12.0394 91.0851 12.2102 92.3096C12.3687 93.5014 12.4815 94.7124 12.9123 95.8404C14.4217 99.7936 17.0836 102.516 21.1404 103.716C21.9648 103.96 22.7971 104.18 23.6096 104.46C24.73 104.834 25.6867 105.597 26.3111 106.616C26.6879 107.223 27.0586 107.837 27.3928 108.47C28.4665 110.528 30.1161 112.215 32.1315 113.318C33.8239 114.26 35.6104 114.899 37.5584 114.911C38.4606 114.916 39.3643 114.811 40.2669 114.743C41.1225 114.677 41.9777 114.532 42.834 114.702C43.2848 114.792 43.7314 114.905 44.1765 115.02C45.2971 115.31 46.3855 115.674 47.3104 116.423C47.7308 116.763 48.1738 117.075 48.594 117.415C50.2916 118.806 52.3467 119.668 54.5126 119.9C56.9302 120.177 59.2598 119.908 61.4369 118.723C62.0999 118.363 62.7558 117.986 63.4174 117.625C64.042 117.254 64.7243 116.996 65.4349 116.861C66.2079 116.742 66.9825 116.636 67.759 116.543C68.0322 116.501 68.3099 116.5 68.5833 116.541C69.487 116.709 70.3947 116.869 71.2829 117.104C73.0144 117.562 74.7526 117.741 76.5206 117.387C79.7145 116.747 82.3917 115.243 84.3296 112.512C84.4193 112.386 84.5196 112.267 84.6122 112.141C85.359 111.068 86.3091 110.159 87.4067 109.467C88.6472 108.706 89.91 108.105 91.362 107.923C92.2452 107.815 93.1206 107.651 93.9836 107.432C97.3864 106.555 101.114 103.226 102.186 99.3552C102.307 98.9191 102.434 98.4847 102.543 98.0455C102.87 96.7195 103.314 95.4672 104.131 94.3383C104.961 93.1904 105.838 92.1337 107.069 91.4225C107.443 91.2065 107.804 90.9682 108.167 90.7342C108.917 90.2749 109.615 89.7313 110.247 89.1133C111.722 87.5941 112.806 85.7272 113.403 83.6788C113.847 82.3247 114.006 80.8905 113.871 79.4695C113.769 78.5692 113.645 77.6714 113.541 76.7717C113.423 75.9813 113.442 75.1761 113.595 74.3923C113.73 73.7998 113.878 73.2101 114.004 72.6163C114.137 71.9719 114.384 71.358 114.734 70.8046C115.118 70.2012 115.515 69.607 115.926 69.0217C116.836 67.7773 117.498 66.3622 117.872 64.8577C118.096 63.8989 118.217 62.9183 118.234 61.9328C118.266 59.9977 117.961 58.1298 117.075 56.3966C116.725 55.7004 116.34 55.0226 115.923 54.3662ZM114.762 62.6941C114.625 64.2769 114.051 65.7882 113.106 67.052C112.595 67.7547 112.127 68.492 111.672 69.2328C111.231 69.9682 110.908 70.7703 110.715 71.6088C110.648 71.8795 110.541 72.1397 110.451 72.4044C110.425 72.4603 110.403 72.5187 110.386 72.5784C110.287 73.2401 110.193 73.9027 110.094 74.5642C109.991 75.4819 110.01 76.4095 110.151 77.322C110.259 78.2529 110.404 79.181 110.472 80.1146C110.639 82.3857 109.209 85.9285 106.77 87.4974C106.161 87.8898 105.548 88.2781 104.94 88.6734C103.804 89.3677 102.818 90.289 102.041 91.382C101.964 91.4955 101.846 91.5802 101.761 91.6899C101.631 91.8579 101.508 92.0324 101.392 92.2109C101.308 92.34 101.255 92.4927 101.162 92.6136C100.443 93.5732 99.9114 94.6651 99.5979 95.8296C99.4131 96.4745 99.2256 97.1196 99.0727 97.7736C98.5202 100.133 97.0906 101.82 95.1574 103.127C94.168 103.763 93.054 104.17 91.8936 104.32C90.9098 104.478 89.9206 104.632 88.9592 104.888C88.2887 105.106 87.6344 105.373 87.0011 105.686C86.6921 105.818 86.3925 105.974 86.0894 106.12C86.0197 106.152 85.9526 106.19 85.8892 106.233C85.5286 106.494 85.1775 106.77 84.8093 107.019C83.9457 107.619 83.1795 108.354 82.5387 109.196C82.1746 109.66 81.8036 110.119 81.4598 110.599C80.3243 112.18 78.7781 113.136 76.9653 113.691C76.1537 113.945 75.3103 114.077 74.4615 114.084C73.7132 114.064 72.9702 113.952 72.249 113.748C71.2622 113.522 70.281 113.249 69.2814 113.108C68.5763 113.008 67.8462 113.092 67.1271 113.099C67.0049 113.099 66.8838 113.135 66.7614 113.139C66.5329 113.116 66.3028 113.12 66.0755 113.153C65.0039 113.467 63.8581 113.5 62.8458 114.038C62.1659 114.398 61.4798 114.747 60.8043 115.118C59.98 115.569 59.1745 116.071 58.244 116.264C55.5661 116.821 53.0568 116.489 50.8201 114.762C50.1606 114.252 49.4993 113.742 48.8208 113.257C47.9901 112.662 47.064 112.22 46.0842 111.949C45.8807 111.883 45.6808 111.806 45.4853 111.719C45.4038 111.676 45.3188 111.641 45.2314 111.613C44.5858 111.485 43.941 111.355 43.2926 111.243C42.3948 111.114 41.4845 111.104 40.5841 111.213C39.8203 111.285 39.0579 111.375 38.2927 111.425C36.5428 111.54 34.966 110.978 33.4831 110.089C32.2898 109.395 31.3001 108.387 30.6171 107.172C30.2306 106.479 29.8356 105.791 29.4326 105.108C28.2444 103.046 26.3075 101.541 24.0423 100.918C23.4231 100.736 22.8058 100.548 22.1817 100.39C19.6317 99.7401 17.8855 98.0822 16.6172 95.8159C16.0334 94.7722 15.8567 93.6135 15.6916 92.4514C15.5331 91.3373 15.4012 90.2108 14.9636 89.168C14.1224 87.1633 13.0201 85.34 11.2912 83.9826C10.8168 83.6104 10.3566 83.2194 9.87356 82.8601C8.15284 81.5807 7.18202 79.8165 6.67283 77.7523C6.34639 76.4107 6.35487 75.007 6.69756 73.6694C6.96157 72.6739 7.17472 71.6652 7.33605 70.6474C7.41943 69.8868 7.42649 69.1198 7.35702 68.3578C7.34241 68.1315 7.28824 67.352 7.20275 66.6562C7.14269 66.1674 7.09111 65.685 7.03011 65.2837C6.89163 63.8895 6.3 62.7397 5.65726 61.5213C5.33012 60.9023 5.00298 60.2821 4.70034 59.6493C4.12307 58.3792 3.89203 56.9738 4.03122 55.5813C4.07856 54.9739 4.16923 54.3708 4.30207 53.7768C4.52935 52.7505 4.97637 51.7882 5.61133 50.9587C6.11558 50.2886 6.62737 49.6243 7.11725 48.9427C7.78378 47.9861 8.30122 46.9301 8.65074 45.8122C8.85234 45.2065 8.96068 44.5863 9.13897 43.9808C9.52052 42.6848 9.49225 41.3564 9.38156 40.0261C9.3361 39.4811 9.28734 38.9363 9.23883 38.3913C9.06266 36.3885 9.64439 34.5931 10.6845 32.9258C11.3635 31.8009 12.3126 30.8707 13.4422 30.2232C14.1803 29.8068 14.9149 29.3832 15.6391 28.9423C16.6198 28.3258 17.4915 27.545 18.2178 26.6335C19.3163 25.2999 20.115 23.7372 20.558 22.0556C20.6932 21.559 20.8642 21.0716 21.0017 20.5765C21.716 17.9859 24.8103 15.0198 28.1156 14.7426C28.955 14.6721 29.7878 14.512 30.6225 14.3953C32.2113 14.1952 33.657 13.3538 34.6332 12.0606C35.1101 11.4487 35.6028 10.8463 36.0374 10.2038C37.5475 7.97181 39.6945 6.84382 42.2596 6.43871C43.4019 6.25799 44.5168 6.47159 45.6318 6.72359C46.5739 6.93622 47.5252 7.10758 48.4783 7.25902C49.7796 7.4659 50.9786 7.09894 52.0985 6.45767C52.8734 6.01391 53.6334 5.53776 54.367 5.0268C56.7267 3.38306 59.2833 3.15242 61.9812 3.87481C62.6303 4.06921 63.2467 4.36273 63.8093 4.74553C64.5378 5.20944 65.2528 5.69616 65.986 6.15167C66.9422 6.71566 67.9762 7.12966 69.0534 7.37974C69.6486 7.53406 70.2494 7.58974 70.8434 7.71789C72.2546 8.02317 73.6517 7.84413 75.047 7.58662C75.9521 7.41862 76.8553 7.18486 77.7814 7.2427C80.5005 7.4119 82.8058 8.45181 84.4968 10.6953C84.9914 11.3517 85.4177 12.0611 85.8807 12.7422C86.5955 13.78 87.4733 14.6908 88.4785 15.4379C89.0073 15.8384 89.5763 16.1579 90.1135 16.533C91.167 17.2715 92.3691 17.6509 93.6009 17.9423C94.0342 18.0445 94.4676 18.1475 94.9026 18.2406C97.4012 18.7755 99.186 20.3046 100.542 22.4345C101.165 23.4142 101.419 24.5201 101.643 25.6438C101.814 26.5961 102.033 27.5386 102.299 28.4678C102.543 29.124 102.831 29.7619 103.163 30.3768C103.281 30.6295 103.413 30.8757 103.54 31.1244C103.576 31.2093 103.619 31.2909 103.669 31.3684C103.918 31.7025 104.187 32.0215 104.423 32.3649C105.102 33.3143 105.93 34.1443 106.872 34.8218C107.291 35.1383 107.71 35.4566 108.139 35.7578C109.926 37.0077 110.927 38.7863 111.496 40.8678C111.909 42.375 111.794 43.8646 111.449 45.3644C111.261 46.1847 111.132 47.0204 111.004 47.8532C110.891 48.6756 110.918 49.5118 111.082 50.3251C111.098 50.3695 111.106 50.4158 111.107 50.4629C111.013 51.1543 111.34 51.7716 111.444 52.4277C111.634 53.6167 112.143 54.6876 112.74 55.7157C113.076 56.2943 113.416 56.8703 113.754 57.4475C114.706 59.0723 114.916 60.8471 114.761 62.6936L114.762 62.6941Z" fill="white"/>
<path d="M91.2522 60.0176C91.2428 42.0805 76.9544 27.6218 59.5511 27.5472C41.8227 27.4713 27.5859 42.2024 27.5567 59.9526C27.5275 77.7028 41.703 92.4624 59.3959 92.4696C76.9474 92.4768 91.2506 77.9039 91.2522 60.0176ZM59.3252 89.846C43.0964 89.8073 30.1109 76.3127 30.1323 59.9869C30.1573 43.6311 43.3625 30.1828 59.4133 30.1667C75.8008 30.1951 88.7025 43.8382 88.6794 60.0539C88.6563 76.2347 75.7486 89.8851 59.3252 89.846Z" fill="white"/>
<path d="M92.968 39.9618L91.3652 40.5292C91.4201 40.7192 91.4536 40.8536 91.4976 40.9852C91.7461 41.7241 92.0092 42.4583 92.2409 43.2027C92.3059 43.4603 92.5169 43.6542 92.7751 43.6935C95.0785 44.2887 97.3772 44.9022 99.6758 45.511C99.8313 45.5521 99.9846 45.6018 100.139 45.6476C100.141 45.6836 100.144 45.7196 100.146 45.7554C99.3859 46.027 98.6289 46.3073 97.8652 46.5675C97.0879 46.8315 96.3277 47.1543 95.5179 47.3612L95.2118 46.5889L93.5959 47.1687L94.9181 51.0478L96.5406 50.4718L96.2109 49.4158C98.2436 48.684 100.246 47.9758 102.268 47.2757C102.412 47.653 102.533 47.9669 102.665 48.312L104.28 47.7416C104.235 47.5784 104.205 47.4437 104.161 47.3139C103.911 46.5754 103.636 45.8446 103.415 45.0975C103.343 44.7942 103.093 44.5669 102.789 44.5275C100.451 43.9436 98.1181 43.341 95.7834 42.7431C95.6515 42.7095 95.5224 42.6644 95.3922 42.6246L95.3858 42.5139L100.075 40.858C100.19 41.1292 100.285 41.3536 100.395 41.6142L102.013 41.0425L100.713 37.2266L99.0943 37.8011C99.1968 38.1578 99.2851 38.4657 99.3838 38.8091L93.3309 40.9451L92.968 39.9618Z" fill="white"/>
<path d="M85.5546 29.9091L84.2209 30.9738C84.3056 31.0993 84.369 31.2037 84.4425 31.2999C84.9319 31.9419 85.4373 32.5719 85.9072 33.2278C86.0476 33.4527 86.3102 33.5674 86.5667 33.5158C87.2836 33.4438 88.0033 33.3958 88.7219 33.3397C90.1282 33.2276 91.5347 33.1157 92.9413 33.0037C93.3452 32.9722 93.7505 32.9538 94.1551 32.929L94.1961 33.0318L90.3404 36.0984C90.1336 35.8558 89.9666 35.6597 89.7827 35.4442L88.4369 36.5172L90.9203 39.762L92.2705 38.6866L91.6256 37.7839C93.32 36.4308 94.9851 35.0938 96.6816 33.7676L97.3782 34.6258L98.7207 33.5533C98.6282 33.4136 98.5665 33.3087 98.4935 33.213C97.9956 32.558 97.4897 31.9098 96.9995 31.2488C96.874 31.0527 96.6446 30.9517 96.4185 30.9927C94.1888 31.196 91.9575 31.3808 89.7262 31.5687C89.3809 31.598 89.0344 31.6126 88.6899 31.6338C88.6732 31.6018 88.6567 31.5697 88.6404 31.5378C89.9445 30.5015 91.2415 29.4555 92.5706 28.419L93.1054 29.031L94.455 27.9587C93.6377 26.8914 92.8395 25.8498 92.015 24.7734L90.6572 25.8508C90.8816 26.1628 91.0675 26.4227 91.2695 26.7028L86.2122 30.7232L85.5546 29.9091Z" fill="white"/>
<path d="M16.5501 47.3848C18.6032 48.1029 20.619 48.7768 22.6266 49.504L22.3251 50.4976L23.9502 51.0575C24.4059 49.6931 24.8478 48.3695 25.3037 47.0064C24.7413 46.8122 24.2241 46.6329 23.6817 46.4452C23.5491 46.7932 23.4299 47.1057 23.3009 47.4451L17.2244 45.3374C17.658 43.9646 18.1013 42.6456 18.5655 41.3081L24.6553 43.4201C24.5484 43.7698 24.4547 44.0758 24.3468 44.4293L25.9778 44.9949C26.4359 43.6164 26.8758 42.2926 27.3252 40.939L25.7001 40.3752L25.3365 41.3813L19.2492 39.2693C19.3608 38.9014 19.4541 38.5944 19.5601 38.2443L17.9369 37.6875C16.809 41.0683 15.6919 44.4173 14.5623 47.8027L16.1794 48.364C16.3104 48.0189 16.4241 47.7187 16.5501 47.3848Z" fill="white"/>
<path d="M60.9899 21.3986C61.7396 21.4466 62.4898 21.5119 63.2401 21.5201C64.6427 21.5453 65.8702 20.5251 66.1281 19.1201C66.308 18.2175 66.1568 17.4101 65.4389 16.7775C65.3956 16.7305 65.3586 16.6777 65.329 16.6205C65.5614 16.4045 65.7772 16.1708 65.9743 15.9209C66.4204 15.2586 66.4467 14.5064 66.2767 13.7578C65.9724 12.4172 64.9234 11.5384 63.5018 11.4222C62.0802 11.306 60.6572 11.2189 59.2346 11.1227C59.0697 11.1114 58.9049 11.121 58.7165 11.121C58.6317 11.6912 58.5996 12.2684 58.6208 12.8447L59.5865 12.9786C59.452 15.1724 59.325 17.3144 59.1534 19.4753H58.1458C58.1124 20.0513 58.0801 20.6033 58.0469 21.174C58.1969 21.1939 58.2852 21.2107 58.3743 21.2172C59.2459 21.2789 60.1178 21.343 60.9899 21.3986ZM61.7238 13.0974C62.2938 13.1339 62.8141 13.1351 63.3254 13.2083C63.9563 13.2983 64.3365 14.127 64.092 14.8016C63.9639 15.2706 63.5173 15.5792 63.0425 15.5273C62.6143 15.5089 62.1869 15.4688 61.7594 15.4359C61.6932 15.4215 61.6282 15.4016 61.5651 15.3766C61.6176 14.6154 61.6692 13.8752 61.7238 13.0974ZM61.4523 17.2073C62.0748 17.2481 62.6214 17.281 63.1673 17.3228C63.2585 17.3343 63.347 17.3626 63.4283 17.4061C63.8704 17.6208 64.0901 18.2103 63.962 18.8242C63.8939 19.3548 63.4391 19.7527 62.9139 19.7407C62.4259 19.7239 61.9391 19.6752 61.452 19.6366C61.396 19.6193 61.3425 19.5946 61.2931 19.5629C61.3446 18.8038 61.3967 18.0348 61.4523 17.2073Z" fill="white"/>
<path d="M76.7235 23.5838C76.3798 24.0638 76.0607 24.5265 75.7578 25.0296L79.2033 27.4418L80.171 26.0001L79.329 25.3629L81.2565 22.5053C81.3175 22.7126 81.3559 22.8108 81.3743 22.9133C81.6023 24.1572 81.8147 25.4042 82.0611 26.644C82.1388 26.9469 82.0705 27.2699 81.8776 27.5133C81.5929 27.8954 81.3416 28.3034 81.0516 28.7373L83.7163 30.6016C84.0809 30.0602 84.4229 29.5516 84.7693 29.0373C84.6784 28.9497 84.5788 28.8719 84.4721 28.8052C84.2224 28.6754 84.0616 28.4164 84.0531 28.1311C83.8411 26.8845 83.6158 25.6399 83.4002 24.3938C83.3849 24.2563 83.3781 24.1181 83.38 23.9796C83.6 23.9436 83.779 23.9061 83.9601 23.886C84.9359 23.7782 85.9149 23.6889 86.8874 23.5649C87.397 23.4998 87.8963 23.3969 88.3163 23.9028L89.3877 22.3092L86.6476 20.3935C86.3275 20.8635 86.031 21.2801 85.7562 21.7114C85.6476 21.8995 85.4521 22.0193 85.238 22.0289C84.0489 22.1592 82.8625 22.3133 81.6746 22.4546C81.55 22.4575 81.4252 22.4518 81.3013 22.4376L82.9549 19.9812L83.8461 20.5488L84.8178 19.1088L81.3536 16.6875L80.3865 18.1316L81.1828 18.7409C80.7273 19.5943 77.7864 23.8869 77.5087 24.1029L76.7235 23.5838Z" fill="white"/>
<path d="M21.9738 34.6598L27.087 38.282L26.5189 39.1756L27.9264 40.173L32.4156 33.5848L29.539 31.5492L28.3614 33.2788C28.8536 33.6328 29.3119 33.9623 29.8082 34.3194C29.2978 35.0666 28.8119 35.7769 28.3048 36.5197L26.3597 35.1369L27.4666 33.4663L25.9758 32.4127C25.5862 32.9711 25.2167 33.5001 24.8283 34.0571L23.1648 32.8768C23.683 32.1122 24.1512 31.3912 24.6691 30.6871C25.0874 30.9717 25.451 31.2196 25.8354 31.4812L27.0048 29.7511L24.2704 27.8203L19.7853 34.4049L21.3384 35.5072L21.9738 34.6598Z" fill="white"/>
<path d="M51.4512 22.2649C53.1602 22.2716 54.4423 21.6764 55.3154 20.6284C57.2297 18.333 56.8592 14.7225 54.516 12.8424C52.6507 11.298 49.8932 11.4996 48.2637 13.2998C46.7872 14.8838 46.4775 17.4757 47.5486 19.504C48.4549 21.2192 49.8603 22.1682 51.4512 22.2649ZM49.4964 15.101C49.9097 14.3241 50.7103 13.8386 51.5777 13.8386C52.1297 13.8386 52.6651 14.0354 53.09 14.3949C54.3444 15.5001 54.7228 17.3361 54.0113 18.8622C53.6124 19.6952 52.7788 20.2256 51.8693 20.2256C51.247 20.2256 50.6488 19.9775 50.2037 19.5342C49.4745 18.8245 49.0687 17.8357 49.0849 16.8083C49.071 16.2122 49.2131 15.6227 49.4964 15.101Z" fill="white"/>
<path d="M69.5699 22.7774C71.2702 24.0828 73.6574 23.9923 75.2578 22.5614C75.4441 22.3903 75.5972 22.182 75.7886 21.965L74.0458 20.7619C73.9075 20.88 73.8161 20.9626 73.7198 21.0389C72.2949 22.1712 70.4211 21.5604 69.899 19.7942C69.7287 19.2228 69.7108 18.6151 69.8471 18.0343C70.1013 16.9289 70.6646 16.0472 71.6946 15.5465C72.8272 14.9957 74.2947 15.4313 74.7328 16.5358C74.9109 17.047 75.3506 17.4192 75.8765 17.5037C75.9804 17.5289 76.0793 17.5745 76.1827 17.6062C76.4111 17.6768 76.64 17.7447 76.8994 17.8222C77.1302 17.112 77.3447 16.452 77.5675 15.7659C77.219 15.6459 76.9194 15.529 76.612 15.4393C76.3438 15.3725 76.1144 15.1954 75.9787 14.9504C75.7189 14.4853 75.335 14.1049 74.8717 13.8531C73.6616 13.1612 72.2059 13.0674 70.9199 13.5982C68.8697 14.4142 67.5299 16.5826 67.6259 18.9144C67.6909 20.503 68.3064 21.8184 69.5699 22.7774Z" fill="white"/>
<path d="M34.4501 31.1675C36.5295 30.7206 38.2516 28.6137 37.9782 26.1996C37.9612 25.8052 37.8463 25.4217 37.644 25.085L35.7763 25.978C35.8045 26.146 35.8234 26.2533 35.8401 26.3606C35.8688 26.5108 35.8832 26.6632 35.8832 26.8163C35.8832 28.1227 34.8283 29.1978 33.5461 29.1978C33.4138 29.1978 33.2816 29.1863 33.1512 29.1635C31.5202 28.9386 30.1431 27.3105 30.16 25.632C30.1754 24.1476 31.4041 22.944 32.8568 23.225C33.1523 23.298 33.4646 23.2003 33.6688 22.9706C33.9364 22.7136 34.2266 22.482 34.5031 22.2343C34.5909 22.1551 34.666 22.0606 34.7598 21.959L33.3801 20.3359C33.0725 20.6021 32.8009 20.8284 32.5397 21.0665C32.3937 21.2038 32.2027 21.2808 32.0042 21.2825C31.4959 21.2748 30.9931 21.3912 30.5378 21.6218C29.7147 22.0584 29.0451 22.7455 28.6223 23.5874C27.7038 25.4976 27.912 27.3434 29.1327 29.0193C30.4488 30.8269 32.2385 31.6422 34.4501 31.1675Z" fill="white"/>
<path d="M38.5671 19.6752L38.032 18.4822L39.1726 17.9173C40.1286 19.921 41.0631 21.8803 42.0099 23.8656L41.0984 24.365C41.3641 24.9036 41.586 25.4239 41.8674 25.9238C42.5427 25.5878 43.1658 25.2869 43.7824 24.9722C44.3913 24.6614 45.0267 24.4003 45.6195 24.0312L44.8694 22.4832L43.9181 22.9284L41.0728 16.9647L42.3695 16.3383L42.9536 17.5004L44.8154 16.5733L43.5184 13.8594L35.4179 17.8781L36.717 20.5918L38.5671 19.6752Z" fill="white"/>
<path d="M65.3175 102.171L66.3232 102.091V100.557C66.1409 100.557 66.021 100.552 65.9014 100.557C65.2579 100.584 64.6147 100.631 63.9715 100.635C63.7108 100.621 63.4628 100.756 63.3304 100.985C62.7416 101.863 62.1344 102.726 61.5313 103.593C61.4561 103.7 61.365 103.797 61.2651 103.918C61.1672 103.811 61.1019 103.746 61.0428 103.675C60.3379 102.83 59.6297 101.987 58.9332 101.134C58.8174 100.969 58.6228 100.878 58.4243 100.898C57.9497 100.926 57.4737 100.924 56.9989 100.947C56.6847 100.963 56.3717 101 56.0627 101.027C56.0627 101.339 56.0521 101.588 56.066 101.837C56.0794 102.078 56.1181 102.318 56.1458 102.559H57.103C57.1423 103.546 57.1805 104.503 57.2194 105.478L56.2189 105.565C56.2459 106.094 56.2707 106.582 56.2978 107.111L59.6794 106.956V105.442L58.9806 105.379C58.9502 104.777 58.9212 104.199 58.892 103.622L59.0034 103.579L61.3822 106.338C61.7675 105.801 62.1163 105.312 62.4679 104.824C62.8153 104.342 63.1439 103.844 63.5141 103.38L63.6163 103.421C63.6413 104.005 63.6663 104.588 63.6919 105.186L63.044 105.269C63.0735 105.782 63.1015 106.272 63.1319 106.807L66.4998 106.65V105.086H65.44C65.3995 104.099 65.3594 103.154 65.3175 102.171Z" fill="white"/>
<path d="M69.288 99.7773C69.2174 99.8452 69.1389 99.905 69.0337 99.995C68.8938 99.5714 69.0005 99.1019 69.3092 98.7844C69.6486 98.4194 70.0761 98.1513 70.549 98.0073C71.058 97.8357 71.5728 97.6821 72.0839 97.5172C72.2831 97.4529 72.4791 97.3787 72.6908 97.3039C72.5246 96.7072 72.3708 96.1543 72.1962 95.5312C71.7151 95.6671 71.2888 95.7852 70.8644 95.9102C70.8078 95.9246 70.7593 95.9613 70.7294 96.0124C70.7765 96.3523 70.4901 96.3343 70.3144 96.4015C69.732 96.6 69.1837 96.8904 68.6893 97.2616C67.694 98.0635 67.2072 99.107 67.454 100.389C67.665 101.412 67.9319 102.421 68.2534 103.413C68.3848 103.796 68.5895 104.149 68.8556 104.45C70.1067 105.923 72.2537 105.587 73.3698 104.551C74.4193 103.576 74.6626 102.096 74.0135 100.681C73.5528 99.6031 72.5038 98.9025 71.3498 98.9025C70.5759 98.9025 69.8333 99.2176 69.288 99.7773ZM71.2598 103.828C70.4119 103.851 69.6444 103.049 69.6394 102.136C69.6477 101.274 70.3319 100.564 71.1767 100.54C72.0052 100.538 72.6522 101.3 72.6605 102.288C72.6614 102.31 72.6621 102.333 72.6621 102.356C72.6621 103.147 72.0356 103.805 71.2591 103.828L71.2598 103.828Z" fill="white"/>
<path d="M90.3544 92.7096L88.5015 90.4601L89.1252 89.8601L88.1539 88.6875L85.5187 90.9502L86.4935 92.1262L87.1605 91.6063L87.6461 92.2015L85.6312 93.9295C85.4605 93.7135 85.3123 93.5271 85.1366 93.3055L85.7469 92.7759C85.408 92.364 85.099 91.9882 84.7709 91.5891L82.1328 93.8513C82.4713 94.2619 82.7821 94.6394 83.1041 95.0294L83.8121 94.4813L85.6687 96.7361L85.0201 97.3519C85.3561 97.7599 85.6597 98.1271 85.9892 98.5267L88.6271 96.2645C88.2816 95.8469 87.9711 95.4725 87.6518 95.0851C87.4141 95.2721 87.2245 95.4211 87.0034 95.5953L86.3859 94.8338L88.4054 93.1047L89.0147 93.8683L88.4064 94.447L89.3777 95.6229L92.0091 93.3605L91.0435 92.1864L90.3544 92.7096Z" fill="white"/>
<path d="M82.6018 98.8233C82.1597 97.9499 81.7282 97.0979 81.2911 96.2347L81.9002 95.848L81.1971 94.4844C80.6149 94.7909 80.0803 95.092 79.528 95.3544C79.272 95.4597 79.0934 95.7014 79.065 95.981C78.8348 97.3029 78.5833 98.621 78.3365 99.9395C78.3016 100.071 78.2599 100.199 78.2114 100.326L77.2211 98.373L77.824 97.9823C77.5932 97.5283 77.3718 97.0943 77.1337 96.6247C76.1659 97.1368 75.2462 97.6233 74.2891 98.1295L74.9827 99.4871L75.6739 99.19L76.9928 101.79L76.3725 102.186C76.5972 102.669 76.8148 103.106 77.0691 103.539C77.6504 103.233 78.1721 102.933 78.7154 102.683C78.9999 102.566 79.1978 102.297 79.2277 101.985C79.4606 100.696 79.7162 99.4106 79.9665 98.1244C80.0023 98.0008 80.0461 97.8799 80.0975 97.762C80.4461 98.4417 80.7708 99.0299 81.0445 99.6508L80.419 100.048L81.1149 101.408L83.9586 99.8978C83.7083 99.4127 83.489 98.9882 83.2641 98.5538L82.6018 98.8233Z" fill="white"/>
<path d="M23.9951 82.434L25.3213 81.7466C24.2786 79.6538 23.2619 77.6124 22.2371 75.5547C21.7788 75.7616 21.3325 75.9951 20.9006 76.2543C21.0303 76.5423 21.1361 76.7782 21.2618 77.0561C20.7743 77.2807 20.3384 77.5092 19.8829 77.6854C19.1132 77.983 18.5117 77.7792 18.0345 77.0993C17.9389 76.9635 17.8506 76.8226 17.7392 76.6539L16.4139 77.3525C16.5846 77.6911 16.7179 77.9719 16.8654 78.2451C17.3602 79.261 18.481 79.8053 19.567 79.5569C20.2755 79.4167 20.9601 79.1731 21.6001 78.8333C21.7444 78.7613 21.8947 78.7018 22.0619 78.6276C22.3193 79.1443 22.5702 79.6008 22.7826 80.1098L20.1829 81.4521L19.7774 80.6813C19.0272 80.9745 18.6452 81.2009 18.461 81.4596L20.0817 84.72C20.5482 84.521 21.0002 84.2884 21.4343 84.024L20.9853 83.0385C21.8704 82.578 22.7047 82.1318 23.5721 81.713L23.9951 82.434Z" fill="white"/>
<path d="M45.0157 99.5076C44.8348 99.9768 44.3772 100.106 44.0145 100.35C43.9554 100.366 43.8927 100.358 43.8388 100.329C43.6702 100.265 43.5051 100.191 43.307 100.107C43.6026 99.3175 43.8854 98.5639 44.1838 97.7679L41.6991 96.7812C41.5107 97.2852 41.3387 97.7429 41.159 98.2212C41.3345 98.2983 41.4598 98.3516 41.583 98.4084C41.717 98.4696 41.8496 98.5347 42.0102 98.6107C41.6541 99.5403 41.3161 100.422 40.9598 101.352L40.0763 101.035L39.5273 102.478L42.5934 103.693L43.1369 102.265L42.5891 101.977C42.6871 101.736 42.7775 101.512 42.8635 101.301C43.2399 101.297 43.5679 101.572 43.6355 101.949C43.8541 102.681 44.1151 103.4 44.372 104.119C44.4104 104.265 44.4975 104.393 44.6181 104.481C45.0447 104.682 45.4896 104.841 45.9632 105.029L46.5134 103.583C46.2988 103.496 46.1255 103.437 45.9639 103.355C45.8513 103.312 45.7543 103.235 45.6857 103.135C45.4458 102.583 45.2293 102.021 44.9926 101.431C45.5463 101.106 46.0437 100.8 46.556 100.524C46.6837 100.486 46.82 100.493 46.9439 100.541C47.1585 100.599 47.3655 100.685 47.5996 100.769C47.788 100.271 47.9578 99.8259 48.1429 99.3382L45.4914 98.2858C45.3198 98.7264 45.1664 99.1176 45.0157 99.5076Z" fill="white"/>
<path d="M104.257 63.5034C103.858 63.4861 103.459 63.4988 103.06 63.4976C102.39 63.495 102.287 63.4165 102.08 62.7558C101.987 62.4579 101.894 62.1603 101.8 61.863C101.776 61.7888 101.751 61.7151 101.724 61.6419C101.651 61.4099 101.436 61.2527 101.197 61.2579C100.958 61.2541 100.744 61.4161 100.678 61.6513C100.536 62.0639 100.41 62.4827 100.271 62.8964C100.106 63.393 99.9764 63.4909 99.4734 63.4964C99.0438 63.5019 98.6137 63.4899 98.1844 63.5017C97.9142 63.4686 97.6573 63.6387 97.577 63.9037C97.4971 64.1624 97.5729 64.3717 97.844 64.5884C98.182 64.8586 98.527 65.1178 98.8678 65.3861C99.2868 65.7166 99.3429 65.8834 99.1936 66.3941C99.0666 66.8283 98.9182 67.256 98.7969 67.6918C98.686 67.9462 98.776 68.2479 99.007 68.3964C99.2171 68.5431 99.5019 68.5198 99.6865 68.341C99.9456 68.1466 100.208 67.9556 100.468 67.7614C101.162 67.243 101.237 67.2413 101.919 67.7396C102.181 67.9316 102.439 68.1276 102.706 68.312C102.988 68.5075 103.212 68.5148 103.428 68.3525C103.644 68.1903 103.691 67.9803 103.597 67.6344C103.576 67.5591 103.551 67.4849 103.528 67.4108C103.42 67.0688 103.305 66.7287 103.204 66.3845C103.065 65.9132 103.128 65.7181 103.513 65.4094C103.863 65.1296 104.219 64.8574 104.573 64.5829C104.733 64.4871 104.839 64.3186 104.856 64.1305C104.857 64.1146 104.858 64.0988 104.858 64.083C104.858 63.7645 104.601 63.5024 104.288 63.5024C104.278 63.5024 104.267 63.5029 104.257 63.5034Z" fill="white"/>
<path d="M18.0624 67.5707C18.3922 67.7982 18.7101 68.0438 19.037 68.2758C19.3858 68.5233 19.6053 68.5463 19.8322 68.3632C20.1122 68.1374 20.071 67.853 19.9735 67.5542C19.8519 67.1841 19.7379 66.8116 19.6258 66.4382C19.4643 65.8994 19.5168 65.7348 19.953 65.3932C20.3063 65.1172 20.6671 64.8532 21.0116 64.5672C21.3414 64.2931 21.3765 63.9235 21.0823 63.6907C20.933 63.587 20.758 63.5287 20.5773 63.5227C20.1647 63.4987 19.7497 63.5181 19.3359 63.5131C18.8272 63.5069 18.7024 63.4133 18.5373 62.9153C18.3999 62.5013 18.2739 62.0834 18.135 61.6704C18.065 61.4352 17.8507 61.2734 17.6095 61.2734C17.3761 61.2734 17.167 61.4254 17.0907 61.6502C17.0523 61.752 17.02 61.8562 16.9859 61.9598C16.8709 62.3157 16.7572 62.6719 16.6415 63.0276C16.5699 63.3278 16.2944 63.5342 15.9917 63.5138C15.7619 63.5119 15.5318 63.5138 15.3019 63.5138V63.5162H14.6121C14.3436 63.4884 14.0876 63.6456 13.9858 63.9002C13.8838 64.1563 13.9724 64.3802 14.2684 64.6202C14.5934 64.8808 14.9279 65.1314 15.2553 65.3882C15.7126 65.7446 15.76 65.8999 15.5838 66.4732C15.4602 66.8755 15.3167 67.2722 15.2159 67.6802C15.1686 67.8566 15.1759 68.0435 15.2369 68.2156C15.373 68.5324 15.7357 68.5982 16.056 68.379C16.4251 68.127 16.7753 67.847 17.1394 67.587C17.3938 67.337 17.7996 67.3298 18.0624 67.5707Z" fill="white"/>
<path d="M99.0416 80.6594C98.148 80.1844 97.2832 79.7354 96.4273 79.2131L96.9219 78.3131L97.9474 78.8215L98.746 77.2924L96.4358 76.0312L93.0137 82.5352C93.8041 82.9672 94.5446 83.3898 95.3312 83.7908L96.1266 82.2705L95.1282 81.695L95.6049 80.807C96.4963 81.2946 97.3628 81.7413 98.2055 82.2448C98.0581 82.5587 97.9351 82.8208 97.8032 83.1011L99.1311 83.8242L100.894 80.4767L99.5595 79.7531C99.3774 80.073 99.218 80.351 99.0416 80.6594Z" fill="white"/>
<path d="M95.635 86.4471C95.3971 86.2599 95.1931 86.1001 94.9894 85.9393C94.5163 85.5661 94.0617 85.1655 93.5669 84.8252C92.7013 84.2303 91.8765 84.2862 91.0666 84.9591C90.5027 85.4243 90.0673 86.031 89.8025 86.7193C89.5993 87.187 89.4931 87.6925 89.4902 88.2039L90.6167 88.4504C90.6754 88.2642 90.7138 88.1312 90.758 88.0006C90.9455 87.3843 91.303 86.8357 91.7877 86.4207C92.2263 86.0653 92.5913 86.1087 92.9974 86.5292C92.7755 86.7711 92.5753 86.9852 92.3787 87.2043C91.9503 87.6342 91.6372 88.1691 91.4696 88.7573C91.2757 89.4209 91.4924 90.1419 92.0174 90.5813C92.5148 91.08 93.2685 91.2113 93.9001 90.9094C94.2296 90.7462 94.5316 90.5307 94.7951 90.2715C95.2318 89.8589 95.4965 89.2909 95.5344 88.6853C95.6689 88.687 95.802 88.6563 95.9223 88.5953C96.4016 88.0117 96.8599 87.4098 97.3449 86.7879L96.1611 85.8258L95.635 86.4471ZM94.3274 88.6551C94.2193 88.8769 94.0777 89.0801 93.9079 89.2573C93.788 89.402 93.6114 89.4855 93.4256 89.4855C93.0796 89.4855 92.7946 89.1953 92.7946 88.8425C92.7946 88.7101 92.8349 88.5807 92.9098 88.4725C92.9964 88.3266 93.0949 88.1883 93.2042 88.059C93.4022 87.8034 93.6046 87.5509 93.8073 87.2991C93.8408 87.2744 93.8775 87.2552 93.9166 87.2415C94.6142 87.7153 94.6795 87.9166 94.3262 88.6553L94.3274 88.6551Z" fill="white"/>
<path d="M24.4642 86.2866L27.213 89.8275C27.6934 89.4824 28.1068 89.0492 28.432 88.5503C28.6958 88.1444 28.8472 87.6736 28.8706 87.1873C28.8974 85.9026 28.2916 84.9592 27.2485 84.3371C25.2124 83.1225 22.9665 84.677 22.5343 86.5026C22.4535 86.8357 22.43 87.1804 22.4649 87.5216C22.6337 88.9899 23.8617 90.3678 25.341 90.7602L25.8356 89.606C25.6729 89.4918 25.528 89.4059 25.4013 89.2976C25.097 89.0377 24.7861 88.7828 24.5063 88.4965C24.2197 88.2066 24.0447 87.8212 24.0136 87.411C23.9343 86.9792 24.1109 86.5381 24.4642 86.2866ZM27.0611 85.9948C27.5085 86.5708 27.4958 87.0724 26.9774 87.6164L25.4289 85.6156C26.0222 85.2529 26.6006 85.4015 27.0611 85.9948Z" fill="white"/>
<path d="M51.3239 99.8438C51.3216 99.8438 51.3192 99.8438 51.3169 99.8438C49.5926 99.8438 48.1738 101.289 48.1738 103.047C48.1738 103.069 48.1741 103.092 48.1745 103.115C48.1745 104.816 49.374 106.292 51.4419 106.307C53.5581 106.322 54.5654 104.555 54.5645 103.073C54.5774 101.261 53.1732 99.8613 51.3239 99.8438ZM51.3628 104.698C51.3522 104.698 51.3414 104.698 51.3308 104.698C50.5224 104.698 49.8573 104.02 49.8573 103.197C49.8573 103.181 49.8576 103.165 49.858 103.149C49.8507 102.17 50.4991 101.442 51.3753 101.447C51.4038 101.445 51.4323 101.444 51.461 101.444C52.2352 101.444 52.8725 102.093 52.8725 102.883C52.8725 102.916 52.8713 102.95 52.8689 102.983C52.8581 104.131 52.0618 104.759 51.3628 104.698V104.698Z" fill="white"/>
<path d="M36.6241 93.9539C35.0132 93.9155 33.4446 95.3005 33.4182 97.2611C33.3947 98.9636 34.9541 100.459 36.6967 100.47C38.3887 100.48 39.8291 98.9843 39.8378 97.2056C39.8463 95.4522 38.3863 93.9957 36.6241 93.9539ZM36.5683 98.8347C35.764 98.8319 35.1036 98.1567 35.1036 97.3372C35.1036 97.3249 35.1039 97.3129 35.1041 97.3007C35.1041 96.3779 35.8399 95.5727 36.6866 95.5655C37.5003 95.5645 38.1741 96.2377 38.1892 97.0667C38.1845 97.9907 37.4146 98.8304 36.5683 98.835V98.8347Z" fill="white"/>
<path d="M34.7179 92.7861C34.5954 92.6387 34.4633 92.5 34.3225 92.3709C34.0542 92.1623 33.8538 91.8763 33.7473 91.5501C33.549 91.0389 33.2181 90.5918 32.7902 90.2572C31.8208 89.4242 30.7376 89.2068 29.5781 89.7235C28.4165 90.1907 27.6353 91.3233 27.5974 92.5953C27.4754 94.5995 29.3699 96.3102 31.3238 96.0001C31.6823 95.9766 32.0235 95.8345 32.2956 95.5953C32.1571 95.3723 32.0273 95.1621 31.8952 94.9525C31.7562 94.7315 31.6149 94.5117 31.4903 94.3161C31.2056 94.3681 30.9171 94.3962 30.6276 94.3998C29.8461 94.3473 29.231 93.6774 29.231 92.8794C29.231 92.8168 29.2347 92.7544 29.2423 92.6922C29.3516 91.786 30.2039 91.0747 31.0442 91.1887C31.7774 91.3072 32.3516 91.9053 32.4522 92.6548C32.456 92.8058 32.5014 92.9526 32.5836 93.0784C32.9051 93.4074 33.2577 93.7048 33.6199 94.0333L34.7179 92.7861Z" fill="white"/>
<path d="M105.461 42.886C105.284 42.8426 105.118 42.7578 104.978 42.6383C104.41 42.1221 104.321 41.2389 104.775 40.6161C104.82 40.5554 104.86 40.4913 104.901 40.4306L104.397 38.9688C103.701 39.5042 103.227 40.1049 103.178 40.9636C103.117 41.9087 103.418 42.8418 104.017 43.5661C104.572 44.2578 105.319 44.4983 106.253 44.4301C106.106 43.9936 105.966 43.6319 105.865 43.2597C105.824 43.06 105.66 42.909 105.461 42.886Z" fill="white"/>
<path d="M66.6924 61.8178C66.1307 61.4991 65.5525 61.2118 64.9601 60.9569C64.6704 60.824 64.3595 60.7388 64.0289 60.6209C64.0475 60.294 64.0708 59.984 64.0814 59.6737C64.1033 59.0307 63.8108 58.7259 63.1852 58.6853C62.803 58.6688 62.4228 58.6191 62.0488 58.5363C60.3472 58.1201 58.94 57.1587 57.6408 56.0096C57.4178 55.8123 57.3996 55.6535 57.5744 55.3475C57.9291 54.7268 58.2657 54.0908 58.671 53.5055C60.0841 51.5137 61.7198 49.696 63.5451 48.0895C64.7069 47.0419 65.9097 46.0456 67.3134 45.3374C67.4223 45.28 67.5216 45.2056 67.6078 45.1168C68.2294 44.4897 68.8561 43.8665 69.4621 43.2245C69.7174 42.9813 69.8627 42.6408 69.8627 42.2846C69.8627 41.9558 69.7391 41.6393 69.5172 41.4005C68.8377 40.6565 68.1307 39.9365 67.4039 39.2422C66.9027 38.7533 66.0977 38.7646 65.6099 39.2676C65.4957 39.3718 65.3904 39.4865 65.2818 39.5969C61.5606 43.3908 57.8394 47.1854 54.1181 50.9805C53.9483 51.2032 53.6949 51.3443 53.4191 51.3695C53.031 51.3969 52.6683 51.5778 52.409 51.8735C51.3131 52.9907 50.2092 54.1002 49.1234 55.227C48.7855 55.551 48.5938 56.0034 48.5938 56.4762C48.5938 56.9422 48.7803 57.3889 49.1098 57.7122C49.8097 58.4578 50.5349 59.1795 51.2561 59.9043C51.5955 60.2823 52.0974 60.4654 52.595 60.3929C53.0409 60.3173 53.2439 60.5206 53.4165 60.8991C53.2517 60.9732 53.1 61.0431 52.9469 61.1086C52.2302 61.3911 51.5625 61.788 50.9685 62.2846C50.2273 62.8913 49.8031 63.8155 49.8208 64.7842C49.8321 69.8203 49.8255 74.8561 49.8276 79.8922C49.8239 80.0641 49.8397 80.2359 49.8747 80.4039C49.9638 80.7526 50.2751 80.9979 50.6286 80.9979C50.8569 80.9979 51.0738 80.8959 51.2217 80.719C51.3727 80.5388 51.4476 80.3048 51.4301 80.0684C51.4266 79.3021 51.4266 78.5358 51.4301 77.7695C51.4301 77.6377 51.4518 77.5055 51.4671 77.3375C51.5663 77.3732 51.6635 77.414 51.7587 77.4596C52.8096 78.0131 53.9328 78.4105 55.0941 78.6395C55.2138 78.6673 55.336 78.6827 55.4587 78.6853C55.4653 78.6855 55.4719 78.6855 55.4785 78.6855C55.9093 78.6855 56.2637 78.3243 56.2637 77.8854C56.2637 77.5523 56.0595 77.2525 55.7534 77.1359C55.5826 77.0696 55.3942 77.0531 55.2197 76.9962C54.4469 76.744 53.6652 76.5143 52.9099 76.2164C52.5463 76.0501 52.2069 75.8339 51.9012 75.5732C51.5747 75.3256 51.3941 74.9243 51.4233 74.5105C51.4429 73.7603 51.4268 73.0094 51.4306 72.2584C51.4393 72.1367 51.4556 72.0155 51.4796 71.896C51.9652 72.1382 52.3936 72.3813 52.844 72.5714C54.8459 73.4173 56.9479 73.707 59.0992 73.707C59.1606 73.7087 59.2219 73.7049 59.2826 73.6955C59.5782 73.6497 59.8225 73.4337 59.9087 73.1418C60.0019 72.8692 59.9341 72.5651 59.7341 72.3606C59.5634 72.1775 59.3222 72.0794 59.0747 72.0921C58.3092 72.0484 57.5419 72.0136 56.7802 71.9313C55.6179 71.8134 54.4794 71.5202 53.4019 71.0611C52.8734 70.846 52.3842 70.5419 51.9546 70.1615C51.688 69.9674 51.5079 69.6724 51.4546 69.3429C51.4209 68.6491 51.4445 67.9521 51.4445 67.1829C51.8449 67.3956 52.1713 67.5885 52.514 67.7474C52.8621 67.9092 53.2206 68.0486 53.583 68.1772C53.9302 68.3006 54.2832 68.4105 54.6398 68.502C55.0112 68.598 55.3885 68.6712 55.7658 68.7386C56.1431 68.806 56.5228 68.8632 56.9036 68.9066C57.2845 68.95 57.6672 68.9812 58.0497 69.0014C58.4173 69.0211 58.7862 69.0254 59.154 69.0254C59.5377 69.0254 59.9218 69.0206 60.3048 69.0014C60.6878 68.9822 61.07 68.9498 61.4509 68.9054C61.8317 68.861 62.2106 68.8008 62.5875 68.7314C62.9643 68.662 63.3411 68.5848 63.7119 68.489C64.0682 68.3973 64.4224 68.2912 64.7689 68.1664C65.1297 68.0368 65.4856 67.8888 65.8337 67.727C66.1721 67.57 66.4983 67.3855 66.8375 67.2089C66.857 67.259 66.8718 67.3109 66.8822 67.3636C66.8855 68.8024 66.8876 70.2412 66.8886 71.68C66.8914 71.998 66.7642 72.3035 66.5376 72.5224C66.3097 72.7533 66.0602 72.9616 65.7934 73.1442C65.1928 73.5239 64.5407 73.8117 63.8581 73.9984C63.5642 74.0865 63.2648 74.1568 62.9709 74.2446C62.6617 74.3149 62.4276 74.5775 62.3885 74.8979C62.3805 74.944 62.3764 74.9908 62.3764 75.0378C62.3764 75.4772 62.7314 75.8392 63.1629 75.8392C63.2434 75.8392 63.3232 75.8264 63.4 75.8017C64.4834 75.5718 65.5256 75.1727 66.4891 74.6181C66.5982 74.5535 66.7164 74.505 66.8914 74.4189V79.8466C66.8857 80.0029 66.8907 80.1594 66.906 80.3149C66.9592 80.7078 67.2922 81.0037 67.6816 81.0037C68.0751 81.0037 68.4105 80.7013 68.4585 80.3034C68.4736 80.132 68.4781 79.9599 68.4722 79.7881V69.0434C68.4722 67.5732 68.4621 66.1032 68.4762 64.633C68.4944 63.9043 68.2188 63.199 67.7138 62.6827C67.4124 62.3499 67.0687 62.059 66.6924 61.8178ZM62.3868 60.2794C62.3967 60.402 62.3958 60.5252 62.384 60.6476C62.1598 61.8696 61.5632 62.9892 60.6793 63.8465C60.5003 64.0402 60.2473 64.1453 59.9864 64.1345C59.0382 64.1174 58.0893 64.128 57.0942 64.128C56.4896 62.3691 55.5433 60.7522 54.3122 59.3741L56.4877 57.1606C58.1825 58.6445 60.0629 59.8702 62.3868 60.2794ZM66.625 40.7043C66.995 41.0868 67.4039 41.5087 67.8118 41.9318C67.9077 42.0314 67.999 42.1351 68.114 42.2604C68.033 42.3624 67.9656 42.461 67.8853 42.547C67.1856 43.3332 66.3747 44.009 65.4797 44.5521C64.2632 45.256 63.2093 46.2043 62.1748 47.1623C60.4565 48.7257 58.8983 50.4626 57.5238 52.3463C57.227 52.7605 56.9512 53.1906 56.6905 53.577C56.2173 53.097 55.7548 52.629 55.3365 52.2054L66.625 40.7043ZM52.4231 58.8001C51.6765 58.0501 50.9231 57.2881 50.2238 56.552C51.4014 55.3532 52.5343 54.1986 53.6836 53.0284C54.4759 53.7136 55.2135 54.4621 55.8893 55.2668C55.7185 55.5819 52.8456 58.5269 52.4231 58.801V58.8001ZM66.7032 65.052C66.4769 65.3458 66.2107 65.6052 65.9128 65.8226C65.1443 66.3439 64.2846 66.7092 63.3805 66.899C60.2085 67.6502 57.0565 67.6262 53.9401 66.5909C53.2936 66.3864 52.6876 66.0672 52.1501 65.6479C51.2104 64.8958 51.1972 64.1906 52.1216 63.4361C52.7832 62.9239 53.538 62.551 54.3423 62.3388C54.3984 62.3335 54.4549 62.3359 54.5103 62.3463C54.8598 62.8795 55.1419 63.4555 55.3501 64.0606C55.2011 64.1006 55.0857 64.1237 54.9754 64.1626C54.6306 64.2814 54.4029 64.6207 54.4189 64.9913C54.4561 65.3782 54.7588 65.6875 55.1384 65.7264C55.276 65.7381 55.4142 65.7417 55.5522 65.7377H62.779C62.917 65.7422 63.055 65.7379 63.1925 65.7252C63.5847 65.676 63.8826 65.3328 63.8826 64.9303C63.8826 64.523 63.5778 64.1774 63.1805 64.134C63.0197 64.1146 62.8572 64.11 62.6593 64.0963L63.6579 62.2303C64.6471 62.5299 65.6047 62.8865 66.3876 63.6077C66.5115 63.7243 66.6205 63.8566 66.7119 64.001C66.9484 64.3102 66.9446 64.7479 66.7032 65.053V65.052Z" fill="white"/>
<path d="M69.5041 58.4763C69.0936 58.4335 68.6797 58.435 68.2697 58.4811C67.8728 58.5303 67.5737 58.8818 67.5822 59.2891C67.6029 59.7122 67.9381 60.0547 68.3531 60.077C68.5356 60.0922 68.7205 60.0797 68.9044 60.0797C69.0728 60.0797 69.2417 60.0886 69.4096 60.078C69.8234 60.0686 70.1675 59.7384 70.2017 59.3182C70.2309 58.8941 69.9193 58.518 69.5041 58.4763Z" fill="white"/>
<path d="M63.5615 52.4638C63.1444 52.4271 62.7716 52.7461 62.7348 53.1711C62.6896 53.5733 62.6875 53.9796 62.7282 54.3824C62.7544 54.7942 63.094 55.1187 63.4989 55.1187C63.5257 55.1187 63.5526 55.1172 63.5794 55.1143C63.9928 55.0779 64.3131 54.7191 64.3095 54.2962C64.3192 54.1251 64.3112 53.9532 64.3112 53.7816C64.3112 53.61 64.3199 53.438 64.3093 53.2671C64.3006 52.8452 63.9746 52.4948 63.5615 52.4638Z" fill="white"/>
<path d="M67.625 54.2193C67.5286 54.2277 67.4354 54.2579 67.352 54.3078C66.9629 54.6541 66.5981 55.0276 66.2597 55.4252C66.0423 55.7003 66.1551 56.1126 66.4106 56.3593C66.6624 56.6341 67.0823 56.6708 67.3763 56.4436C67.7168 56.1539 68.0329 55.8356 68.3207 55.4917C68.5155 55.2556 68.5353 54.9148 68.3695 54.6565C68.2239 54.3784 67.9342 54.2082 67.625 54.2193Z" fill="white"/>
<path d="M87.6621 59.5312C87.6614 59.5312 87.6607 59.5312 87.66 59.5312C87.4414 59.5312 87.2617 59.7144 87.2617 59.9371C87.2617 59.957 87.2631 59.9767 87.266 59.9964C87.266 59.9973 87.266 59.9985 87.266 59.9995C87.266 60.2169 87.4414 60.3955 87.6546 60.3955C87.6628 60.3955 87.6713 60.3952 87.6795 60.3948C87.8908 60.3811 88.0576 60.2001 88.0576 59.9844C88.0576 59.9743 88.0571 59.964 88.0564 59.9536C88.0566 59.9484 88.0566 59.9431 88.0566 59.9378C88.0566 59.7165 87.8793 59.5336 87.6621 59.5312Z" fill="white"/>
<path d="M31.4628 56.0411C31.6835 56.0411 31.8669 55.8599 31.8735 55.6351C31.8512 55.4303 31.6922 55.2669 31.4915 55.2422C31.4911 55.2422 31.4903 55.2422 31.4899 55.2422C31.2694 55.2422 31.0881 55.427 31.0881 55.6516V55.6519C31.0956 55.8597 31.2591 56.0294 31.4628 56.0411Z" fill="white"/>
<path d="M40.6462 81.125C40.426 81.1245 40.2428 81.3043 40.2346 81.5284C40.2583 81.7324 40.4154 81.8956 40.6149 81.9239C40.8351 81.9215 41.0155 81.737 41.0172 81.5126C41.0146 81.3045 40.8502 81.1329 40.6462 81.125Z" fill="white"/>
<path d="M31.8776 64.4274C31.8713 64.2123 31.696 64.0391 31.485 64.0391C31.2693 64.0391 31.0919 64.2198 31.0919 64.4394C31.0919 64.4435 31.0922 64.4473 31.0922 64.4514C31.0985 64.6664 31.2737 64.8397 31.485 64.8397C31.7005 64.8397 31.8779 64.659 31.8779 64.4394C31.8779 64.4353 31.8776 64.4315 31.8776 64.4274Z" fill="white"/>
<path d="M79.7684 79.5625C79.5496 79.5791 79.3765 79.7641 79.3711 79.9878C79.3885 80.1956 79.5612 80.3574 79.7658 80.3579C79.9707 80.3612 80.1441 80.1971 80.1558 79.9887C80.1639 79.7636 79.9891 79.5716 79.7684 79.5625Z" fill="white"/>
<path d="M81.2174 77.922C81.0132 77.916 80.8375 78.0749 80.8189 78.282C80.8078 78.5062 80.9762 78.7011 81.1957 78.7183C81.3983 78.7085 81.5678 78.5547 81.601 78.3509C81.6072 78.1275 81.4364 77.9364 81.2174 77.922Z" fill="white"/>
<path d="M44.0126 36.2547C44.2156 36.2415 44.3804 36.0774 44.3981 35.8707C44.3925 35.6468 44.2158 35.4632 43.9963 35.4531C43.7938 35.4687 43.631 35.6343 43.6155 35.8407C43.6155 35.8446 43.6152 35.8482 43.6152 35.852C43.6152 36.073 43.7938 36.2547 44.0104 36.2547C44.0111 36.2547 44.0119 36.2547 44.0126 36.2547Z" fill="white"/>
<path d="M47.834 85.9148C47.6303 85.9307 47.473 86.1104 47.4807 86.3185C47.4932 86.5254 47.6557 86.6929 47.8588 86.7078C48.0773 86.6965 48.254 86.5156 48.2636 86.2926C48.2448 86.0701 48.0528 85.9012 47.834 85.9148Z" fill="white"/>
<path d="M72.9003 84.9062C72.6916 84.9158 72.5251 85.0935 72.5251 85.3061C72.5251 85.5127 72.682 85.687 72.8838 85.705C73.1045 85.7136 73.2946 85.5398 73.3104 85.3154C73.3002 85.0918 73.1201 84.912 72.9003 84.9062Z" fill="white"/>
<path d="M54.069 87.8834C53.8646 87.8721 53.6842 88.025 53.6576 88.2319C53.6555 88.2489 53.6543 88.2662 53.6543 88.2832C53.6543 88.5031 53.8319 88.6838 54.0474 88.6838C54.2631 88.6838 54.4405 88.5031 54.4405 88.2832C54.4405 88.0718 54.2763 87.8949 54.069 87.8834Z" fill="white"/>
<path d="M49.8079 33.3248C50.008 33.2996 50.1682 33.1405 50.1979 32.9372C50.196 32.7126 50.0165 32.5278 49.7963 32.5234C49.5858 32.5268 49.4141 32.7042 49.4141 32.919C49.4141 32.9288 49.4145 32.9384 49.4152 32.9482C49.4386 33.1534 49.6053 33.3133 49.8079 33.3248Z" fill="white"/>
<path d="M60.4089 31.6276C60.6291 31.6254 60.809 31.4404 60.8093 31.216C60.8032 31.0012 60.6282 30.8281 60.4174 30.8281C60.4082 30.8281 60.3992 30.8284 60.39 30.8291C60.1887 30.855 60.0342 31.0276 60.0273 31.2342C60.0495 31.4389 60.2082 31.6026 60.4089 31.6276Z" fill="white"/>
<path d="M34.1125 72.4063C33.8907 72.4025 33.7029 72.5808 33.6914 72.8066C33.7044 73.0152 33.8645 73.1853 34.0682 73.2074C34.073 73.2077 34.0777 73.2077 34.0824 73.2077C34.2983 73.2077 34.4762 73.0265 34.4762 72.8064C34.4762 72.5978 34.3165 72.4224 34.1125 72.4063Z" fill="white"/>
<path d="M60.5112 88.3672C60.3079 88.3794 60.1405 88.5393 60.1153 88.7452C60.112 88.9696 60.2879 89.158 60.5079 89.1661C60.7123 89.1661 60.8843 89.0037 60.9 88.7961C60.904 88.5714 60.7312 88.3809 60.5112 88.3672Z" fill="white"/>
<path d="M64.7412 32.1221C64.9442 32.1027 65.1051 31.9338 65.118 31.7264C65.1105 31.5006 64.9256 31.3194 64.704 31.3203C64.5 31.3362 64.3389 31.5087 64.334 31.7173C64.334 31.718 64.334 31.7185 64.334 31.7192C64.334 31.9402 64.5125 32.1224 64.7297 32.1224C64.7334 32.1224 64.7374 32.1221 64.7412 32.1221Z" fill="white"/>
<path d="M85.6333 70.375C85.4134 70.3805 85.2351 70.566 85.2344 70.7902C85.2358 70.9988 85.4011 71.1708 85.6056 71.1771C85.826 71.1785 86.0095 70.9968 86.0142 70.7722C85.9906 70.5677 85.8335 70.4038 85.6333 70.375Z" fill="white"/>
<path d="M87.1797 57.7015C87.1844 57.9103 87.3469 58.0831 87.5513 58.0965C87.772 58.0987 87.9579 57.9211 87.9694 57.6965C87.956 57.4891 87.797 57.3197 87.5942 57.2969C87.3733 57.2969 87.1891 57.4766 87.1797 57.7015Z" fill="white"/>
<path d="M74.8382 83.779C74.8165 83.7754 74.7948 83.7734 74.7729 83.7734C74.5567 83.7734 74.3789 83.9546 74.3789 84.175C74.3789 84.3703 74.5188 84.5385 74.7077 84.5709C74.7294 84.5745 74.751 84.5765 74.7729 84.5765C74.9891 84.5765 75.167 84.3953 75.167 84.175C75.167 83.9796 75.0271 83.8114 74.8382 83.779Z" fill="white"/>
<path d="M87.575 61.8047C87.3724 61.8184 87.2066 61.9784 87.1821 62.1836C87.1816 62.1906 87.1816 62.1978 87.1816 62.2048C87.1816 62.4241 87.3588 62.6048 87.5743 62.6048C87.7895 62.6048 87.9669 62.4241 87.9669 62.2048C87.9669 61.9856 87.79 61.8052 87.575 61.8047Z" fill="white"/>
<path d="M82.5219 76.1641C82.5209 76.1641 82.52 76.1641 82.519 76.1641C82.3028 76.1641 82.125 76.3453 82.125 76.5656C82.125 76.7847 82.3012 76.9654 82.5162 76.9671C82.7202 76.9601 82.8895 76.7993 82.9107 76.5927C82.9138 76.3685 82.7414 76.1787 82.5219 76.1641Z" fill="white"/>
<path d="M45.9245 84.9141C45.7177 84.9253 45.5505 85.0957 45.5392 85.3065C45.5342 85.5181 45.697 85.6984 45.9045 85.7111C45.908 85.7111 45.9115 85.7113 45.9151 85.7113C46.1357 85.7113 46.3178 85.528 46.3206 85.3031C46.2957 85.095 46.1294 84.9318 45.9245 84.9141Z" fill="white"/>
<path d="M68.9746 86.7031C68.7718 86.7149 68.6048 86.8745 68.5803 87.0799C68.5801 87.084 68.5801 87.0878 68.5801 87.0919C68.5801 87.312 68.7579 87.493 68.9736 87.493C69.175 87.493 69.3453 87.3358 69.3653 87.1318C69.3653 86.9078 69.1936 86.7197 68.9746 86.7031Z" fill="white"/>
<path d="M64.8098 87.8828C64.8079 87.8828 64.806 87.8828 64.8042 87.8828C64.5912 87.8828 64.416 88.0614 64.416 88.2783C64.416 88.2838 64.416 88.2891 64.4163 88.2946C64.4306 88.501 64.5936 88.6669 64.7962 88.681C65.0152 88.6688 65.1904 88.4852 65.1965 88.2618C65.1796 88.0554 65.0131 87.8919 64.8098 87.8828Z" fill="white"/>
<path d="M53.9732 32.1205C54.1776 32.1176 54.3474 31.9529 54.3604 31.7451C54.3611 31.5198 54.1852 31.3311 53.9642 31.3203C53.7617 31.3383 53.5978 31.5003 53.5742 31.7062C53.5742 31.7084 53.5742 31.7103 53.5742 31.7125C53.5742 31.9357 53.7542 32.1197 53.9732 32.1205Z" fill="white"/>
<path d="M70.8979 34.0905C71.1179 34.0833 71.2955 33.8976 71.2969 33.6732C71.2922 33.4567 71.116 33.2812 70.9033 33.2812C70.6876 33.2812 70.5098 33.4622 70.5098 33.6823C70.5098 33.6909 70.5102 33.6998 70.5107 33.7084C70.5279 33.9156 70.6942 34.0795 70.8979 34.0905Z" fill="white"/>
<path d="M45.8204 35.1015C45.8315 35.1024 45.8423 35.1029 45.8534 35.1029C46.0628 35.1029 46.2385 34.9356 46.2528 34.7228C46.2531 34.7168 46.2533 34.7108 46.2533 34.7045C46.2533 34.4852 46.0762 34.3047 45.8609 34.3047C45.6523 34.3047 45.4782 34.4741 45.4688 34.6865C45.4662 34.8946 45.6181 35.0736 45.8204 35.1015Z" fill="white"/>
<path d="M42.2458 37.5383C42.4479 37.5215 42.612 37.3614 42.6375 37.1564C42.6389 36.932 42.4601 36.7458 42.2399 36.7422C42.0357 36.7408 41.8652 36.9073 41.8577 37.1152C41.8574 37.1197 41.8574 37.1245 41.8574 37.1291C41.8574 37.3484 42.0305 37.5308 42.2458 37.5383Z" fill="white"/>
<path d="M35.0882 45.7325C35.303 45.7306 35.4787 45.5498 35.4787 45.331C35.4787 45.1157 35.3089 44.9369 35.0979 44.9297C35.0962 44.9297 35.0946 44.9297 35.0929 44.9297C34.877 44.9297 34.6992 45.1109 34.6992 45.331C34.6992 45.5494 34.8739 45.7298 35.0882 45.7325Z" fill="white"/>
<path d="M34.0468 47.6696C34.2665 47.6641 34.4467 47.4841 34.4568 47.2604C34.4495 47.0468 34.2752 46.875 34.0654 46.875C33.8506 46.875 33.6737 47.0552 33.6737 47.2741C33.6737 47.2746 33.6737 47.2751 33.6737 47.2756C33.6824 47.4832 33.8435 47.6533 34.0468 47.6696Z" fill="white"/>
<path d="M33.1839 49.6735C33.3872 49.6677 33.5535 49.5 33.5608 49.2928C33.5636 49.0684 33.3862 48.8808 33.1663 48.875C32.9654 48.899 32.8052 49.0603 32.7793 49.2648C32.7812 49.4896 32.9632 49.6735 33.1839 49.6735Z" fill="white"/>
<path d="M31.8388 53.8861C31.8499 53.887 31.8612 53.8875 31.8723 53.8875C32.0814 53.8875 32.2562 53.7181 32.2665 53.5052C32.2665 53.5014 32.2668 53.4978 32.2668 53.4939C32.2668 53.2724 32.0897 53.0893 31.8723 53.0859C31.6688 53.1003 31.5039 53.2643 31.4844 53.4711C31.4856 53.6787 31.637 53.8563 31.8388 53.8861Z" fill="white"/>
<path d="M86.9219 55.5186C86.9355 55.741 87.1148 55.9186 87.3333 55.9266C87.5528 55.9098 87.7203 55.713 87.7059 55.4893C87.6864 55.2824 87.5095 55.1247 87.3055 55.1331C87.1035 55.1492 86.9405 55.3129 86.9219 55.5186Z" fill="white"/>
<path d="M86.5217 53.3567C86.5224 53.5789 86.7021 53.7616 86.9202 53.7616C86.9254 53.7616 86.9308 53.7616 86.936 53.7613C87.1407 53.7316 87.294 53.5504 87.2931 53.3396C87.2789 53.1287 87.102 52.9641 86.8945 52.9689C86.8922 52.9689 86.8898 52.9689 86.8875 52.9689C86.6866 52.9689 86.5215 53.1371 86.5215 53.3418C86.5215 53.3466 86.5215 53.3516 86.5217 53.3567Z" fill="white"/>
<path d="M83.7198 74.336C83.5123 74.3329 83.335 74.4949 83.3154 74.7053C83.3147 74.7154 83.3142 74.7255 83.3142 74.7358C83.3142 74.9542 83.4906 75.134 83.705 75.134C83.9172 75.134 84.0926 74.9576 84.0957 74.7413C84.0858 74.5311 83.9252 74.3578 83.7198 74.336Z" fill="white"/>
<path d="M47.806 34.1249C48.0076 34.1127 48.1668 33.9404 48.1668 33.7347C48.1668 33.5201 47.9937 33.3438 47.7831 33.3438C47.5827 33.3438 47.4143 33.5038 47.4004 33.7076C47.4004 33.7085 47.4004 33.7093 47.4004 33.7102C47.4004 33.9373 47.5832 34.1242 47.806 34.1249Z" fill="white"/>
<path d="M83.6779 45.5975C83.8814 45.5812 84.0404 45.4057 84.0404 45.1977C84.0404 44.9824 83.8701 44.8034 83.6588 44.7969C83.4468 44.8022 83.2754 44.9812 83.2754 45.1972C83.2754 45.4168 83.4527 45.5975 83.6682 45.5975C83.6715 45.5975 83.6748 45.5975 83.6779 45.5975Z" fill="white"/>
<path d="M36.2731 43.8507C36.4809 43.8451 36.6509 43.674 36.6589 43.4623C36.6504 43.2403 36.4691 43.0625 36.251 43.0625C36.2458 43.0625 36.2404 43.0625 36.235 43.0627C36.0279 43.0822 35.8697 43.2653 35.8772 43.4772C35.8897 43.6884 36.0656 43.8543 36.2731 43.8507Z" fill="white"/>
<path d="M39.0073 40.4647C39.2117 40.4673 39.3867 40.3087 39.4077 40.1013C39.4185 39.8772 39.2503 39.6821 39.0308 39.6641C39.0292 39.6641 39.0275 39.6641 39.0259 39.6641C38.8102 39.6641 38.6328 39.8448 38.6328 40.0646C38.6328 40.2773 38.7989 40.4546 39.0073 40.4647Z" fill="white"/>
<path d="M37.6448 77.9531C37.6444 77.9531 37.6439 77.9531 37.6434 77.9531C37.4256 77.9531 37.2461 78.136 37.2461 78.358C37.2461 78.3623 37.2461 78.3664 37.2463 78.3707C37.2555 78.5807 37.4263 78.7492 37.6326 78.7514C37.8384 78.7384 38.0038 78.5685 38.0148 78.3587C38.0087 78.1492 37.8495 77.9747 37.6448 77.9531Z" fill="white"/>
<path d="M76.4592 37.455C76.4655 37.4552 76.4719 37.4554 76.4783 37.4554C76.6935 37.4554 76.8704 37.275 76.8704 37.0558C76.8704 36.837 76.6942 36.6567 76.4794 36.6562C76.2684 36.6622 76.0979 36.841 76.0979 37.0561C76.0979 37.2637 76.2562 37.4384 76.4592 37.455Z" fill="white"/>
<path d="M42.3187 82.5395C42.3124 82.5393 42.3063 82.5391 42.2999 82.5391C42.0823 82.5391 41.9028 82.7212 41.9021 82.943C41.92 83.1525 42.0863 83.3195 42.2921 83.3349C42.4989 83.326 42.6673 83.1568 42.6793 82.9463C42.688 82.7347 42.5265 82.552 42.3187 82.5395Z" fill="white"/>
<path d="M72.876 35.0629C73.0814 35.0442 73.2401 34.8664 73.2394 34.6564C73.227 34.4468 73.0546 34.2812 72.8485 34.2812C72.6386 34.2812 72.4643 34.4531 72.457 34.6667C72.461 34.8856 72.6389 35.0636 72.8539 35.0636C72.8612 35.0636 72.8687 35.0634 72.876 35.0629Z" fill="white"/>
<path d="M51.9624 87.4068C51.7561 87.396 51.574 87.5503 51.5472 87.7591C51.5392 87.9869 51.7156 88.1813 51.9391 88.1911C52.1447 88.1803 52.3131 88.0159 52.3329 87.8071C52.332 87.5964 52.169 87.42 51.9624 87.4068Z" fill="white"/>
<path d="M31.1374 60.4427C31.1381 60.4427 31.1388 60.4427 31.1395 60.4427C31.3554 60.4427 31.5335 60.2615 31.5335 60.0412C31.5335 59.8315 31.3719 59.6551 31.1666 59.6407C30.9628 59.6383 30.7883 59.7945 30.7643 60.0006C30.7523 60.2248 30.9181 60.4214 31.1374 60.4427Z" fill="white"/>
<path d="M66.8538 32.5928C67.0597 32.5751 67.222 32.4013 67.229 32.1908C67.2085 31.9818 67.0406 31.8172 66.8348 31.8047C66.6216 31.8068 66.4473 31.9864 66.4473 32.2036C66.4473 32.2139 66.4478 32.224 66.4485 32.2343C66.4645 32.4452 66.6466 32.6063 66.8538 32.5928Z" fill="white"/>
<path d="M56.1339 31.7968C56.3414 31.7797 56.5009 31.5964 56.4926 31.3845C56.4853 31.1725 56.3099 31.0033 56.1017 31.0079C55.8956 31.0177 55.7272 31.1841 55.7109 31.3936C55.722 31.6209 55.9107 31.8009 56.1339 31.7968Z" fill="white"/>
<path d="M58.2723 31.628C58.4739 31.6091 58.6362 31.4468 58.6586 31.2416C58.6597 31.0165 58.4791 30.83 58.2582 30.8281C58.054 30.8305 57.886 31 57.8813 31.208C57.8811 31.214 57.8809 31.2203 57.8809 31.2263C57.8809 31.4456 58.057 31.6264 58.2723 31.628Z" fill="white"/>
<path d="M86.3449 51.6439C86.5493 51.6285 86.7093 51.4529 86.7093 51.2443C86.7093 51.0307 86.5421 50.8529 86.3327 50.8438C86.1167 50.8517 85.9434 51.0348 85.9434 51.2551C85.9434 51.2621 85.9436 51.2688 85.9438 51.2757C85.962 51.4855 86.1384 51.6473 86.3449 51.6439Z" fill="white"/>
<path d="M86.3452 68.2812C86.1407 68.2877 85.974 68.4569 85.9672 68.6652C85.9603 68.8726 86.1109 69.0538 86.3127 69.0809C86.5331 69.096 86.727 68.9244 86.743 68.6998C86.743 68.4752 86.5656 68.2884 86.3452 68.2812Z" fill="white"/>
<path d="M85.5605 49.5707C85.5671 49.571 85.5735 49.5712 85.5801 49.5712C85.7956 49.5712 85.9727 49.3907 85.9727 49.1711C85.9727 49.1702 85.9727 49.1658 85.9727 49.1646C85.9727 48.9501 85.7993 48.7734 85.5888 48.7734C85.3832 48.7734 85.212 48.9419 85.2051 49.1514C85.2018 49.3619 85.3556 49.5434 85.5605 49.5707Z" fill="white"/>
<path d="M78.1813 38.853C78.3855 38.8251 78.5383 38.6437 78.5346 38.4339C78.5296 38.2222 78.356 38.0518 78.1483 38.0547C77.9425 38.0619 77.7757 38.2342 77.7715 38.4442C77.7715 38.4464 77.7715 38.4483 77.7715 38.4505C77.7715 38.6715 77.9498 38.8532 78.1667 38.8532C78.1716 38.8532 78.1763 38.8532 78.1813 38.853Z" fill="white"/>
<path d="M82.4714 43.76C82.6784 43.7655 82.8538 43.5978 82.8611 43.3868C82.8619 43.3772 82.8621 43.3676 82.8621 43.358C82.8621 43.1444 82.6899 42.9688 82.4803 42.9688C82.2815 42.9688 82.1143 43.1269 82.0995 43.329C82.0971 43.3467 82.0957 43.3645 82.0957 43.3823C82.0957 43.5896 82.2632 43.76 82.4664 43.76C82.4681 43.76 82.4697 43.76 82.4714 43.76Z" fill="white"/>
<path d="M37.5649 42.1174C37.5656 42.1174 37.5663 42.1174 37.567 42.1174C37.7773 42.1174 37.9505 41.941 37.9505 41.7267C37.9505 41.5123 37.7773 41.3359 37.567 41.3359C37.3581 41.3359 37.1857 41.5097 37.1836 41.7226C37.1933 41.9328 37.3586 42.1042 37.5649 42.1174Z" fill="white"/>
<path d="M79.7058 40.3749C79.9138 40.3814 80.0902 40.2129 80.0972 40.001C80.1041 39.7903 79.951 39.6064 79.7458 39.5786C79.7397 39.5784 79.7336 39.5781 79.7275 39.5781C79.5105 39.5781 79.332 39.76 79.332 39.9811C79.332 39.9818 79.332 39.9825 79.332 39.9832C79.332 39.9859 79.332 39.9883 79.332 39.9909C79.332 40.2004 79.5002 40.3732 79.7058 40.3749Z" fill="white"/>
<path d="M81.1664 42.0066C81.3737 42.0068 81.5444 41.8338 81.5451 41.6226C81.5454 41.6161 81.5456 41.6098 81.5456 41.6034C81.5456 41.3982 81.3803 41.229 81.1789 41.228C81.1681 41.227 81.1572 41.2266 81.1466 41.2266C80.9366 41.2266 80.7637 41.4027 80.7637 41.6168C80.7637 41.8309 80.9366 42.007 81.1466 42.007C81.1532 42.007 81.1598 42.0068 81.1664 42.0066Z" fill="white"/>
<path d="M84.7387 72.3906C84.5315 72.3887 84.3562 72.5534 84.3416 72.7641C84.3418 72.9868 84.5216 73.1699 84.7401 73.1699C84.7444 73.1699 84.7488 73.1699 84.7531 73.1697C84.9606 73.163 85.1268 72.9849 85.1228 72.7732C85.1158 72.5627 84.9453 72.393 84.7387 72.3906Z" fill="white"/>
<path d="M68.9197 33.2402C69.123 33.2311 69.2855 33.0583 69.2855 32.8509C69.2855 32.6371 69.1129 32.4609 68.903 32.4609C68.8974 32.4609 68.892 32.4612 68.8863 32.4614C68.6807 32.4703 68.5123 32.6373 68.4982 32.8466C68.5001 33.0638 68.6758 33.2414 68.8889 33.2414C68.8993 33.2414 68.9094 33.2409 68.9197 33.2402Z" fill="white"/>
<path d="M51.8483 32.6438C52.0693 32.6438 52.2508 32.4588 52.2508 32.2336V32.2332C52.2461 32.0256 52.0796 31.8561 51.8759 31.8518C51.871 31.8516 51.8658 31.8516 51.8608 31.8516C51.6451 31.8516 51.4675 32.032 51.4668 32.2519C51.4889 32.4564 51.6479 32.6196 51.8483 32.6438Z" fill="white"/>
<path d="M86.9253 66.1797C86.7193 66.1854 86.5527 66.3599 86.5527 66.5699C86.5527 66.7842 86.7258 66.9604 86.9359 66.9604C87.1463 66.9604 87.3191 66.7842 87.3191 66.5699C87.3191 66.568 87.3191 66.5658 87.3191 66.5637C87.3024 66.3534 87.1321 66.1874 86.9253 66.1797Z" fill="white"/>
<path d="M66.8831 87.3911C66.6775 87.406 66.5188 87.5874 66.5277 87.7972C66.5277 88.0026 66.6937 88.1718 66.8953 88.1718C66.9001 88.1718 66.9048 88.1718 66.9095 88.1716C67.1158 88.1721 67.287 88.0021 67.2922 87.7921C67.2922 87.7902 67.2922 87.7881 67.2922 87.7861C67.2922 87.5692 67.117 87.3906 66.9041 87.3906C66.897 87.3906 66.8902 87.3906 66.8831 87.3911Z" fill="white"/>
<path d="M39.0241 79.5961C38.8256 79.6108 38.6699 79.7814 38.6699 79.9845C38.6699 80.1981 38.8423 80.3737 39.0519 80.3737C39.0701 80.3737 39.0884 80.3723 39.1066 80.3697C39.3002 80.3493 39.4493 80.181 39.4493 79.9828C39.4493 79.7692 39.2769 79.5938 39.0675 79.5938C39.0531 79.5938 39.0385 79.5945 39.0241 79.5961Z" fill="white"/>
<path d="M56.1754 88.2188C55.9691 88.2315 55.803 88.4011 55.791 88.6114C55.791 88.6135 55.791 88.6155 55.791 88.6176C55.791 88.8363 55.9677 89.0165 56.1825 89.0165C56.3973 89.0165 56.5739 88.8363 56.5739 88.6176C56.5739 88.3987 56.3973 88.2188 56.1825 88.2188C56.1801 88.2188 56.1777 88.2188 56.1754 88.2188Z" fill="white"/>
<path d="M78.2202 81.1099C78.0125 81.0993 77.8311 81.2601 77.8125 81.4713C77.8125 81.4739 77.8125 81.4768 77.8125 81.4795C77.8125 81.7034 77.9931 81.8875 78.2129 81.8875C78.2141 81.8875 78.2152 81.8875 78.2164 81.8875C78.4241 81.8843 78.5935 81.7091 78.5933 81.4975C78.5935 81.4936 78.5935 81.4895 78.5935 81.4857C78.5935 81.2795 78.427 81.1099 78.2247 81.1099C78.2232 81.1099 78.2216 81.1099 78.2202 81.1099Z" fill="white"/>
<path d="M58.3574 88.3672C58.1407 88.3681 57.9629 88.5503 57.9629 88.7711C57.9629 88.7783 57.9629 88.7857 57.9634 88.7929C57.9756 88.9981 58.1447 89.1604 58.3466 89.1604C58.5571 89.1604 58.7305 88.9837 58.7305 88.7692V88.7689C58.7246 88.5587 58.563 88.3847 58.3574 88.3672Z" fill="white"/>
<path d="M76.5149 82.5244C76.3079 82.5347 76.143 82.7109 76.1426 82.9221C76.1555 83.1318 76.3249 83.2994 76.5312 83.3061C76.7382 83.3042 76.9106 83.1371 76.9231 82.9266C76.9233 82.9221 76.9233 82.9173 76.9233 82.9127C76.9233 82.6991 76.7509 82.5234 76.5413 82.5234C76.5326 82.5234 76.5236 82.5237 76.5149 82.5244Z" fill="white"/>
<path d="M44.104 83.7974C44.0972 83.7969 44.0904 83.7969 44.0835 83.7969C43.8687 83.7969 43.6919 83.9769 43.6919 84.196C43.6919 84.1979 43.6919 84.1998 43.6919 84.2018C43.6916 84.2075 43.6914 84.2133 43.6914 84.219C43.6914 84.4247 43.8574 84.5939 44.0593 84.5939C44.0598 84.5939 44.0602 84.5939 44.0607 84.5939C44.0656 84.5942 44.0704 84.5942 44.0753 84.5942C44.2781 84.5942 44.4462 84.4274 44.4519 84.2207C44.4604 84.0105 44.3087 83.8257 44.104 83.7974Z" fill="white"/>
<path d="M40.5889 38.9289C40.795 38.9109 40.9551 38.733 40.9551 38.5223C40.9532 38.308 40.7797 38.1328 40.5693 38.1328C40.5566 38.1328 40.5439 38.1335 40.5312 38.1347C40.3388 38.1518 40.1895 38.3176 40.1895 38.5144C40.1895 38.5283 40.1902 38.542 40.1916 38.5557C40.2076 38.7657 40.3821 38.9296 40.5889 38.9289Z" fill="white"/>
<path d="M31.1954 58.2333C31.2079 58.2345 31.2206 58.2352 31.2331 58.2352C31.4406 58.2352 31.6123 58.0627 31.6149 57.8512C31.6222 57.6422 31.4609 57.4636 31.256 57.4538C31.0365 57.4411 30.8452 57.6141 30.832 57.8378C30.8337 58.0447 30.9929 58.2179 31.1954 58.2333Z" fill="white"/>
<path d="M74.7308 36.1799C74.9324 36.1736 75.0949 36.003 75.0949 35.7976C75.0949 35.7911 75.0947 35.7848 75.0944 35.7786C75.089 35.5667 74.915 35.3958 74.7068 35.3987C74.7035 35.3987 74.6999 35.3984 74.6966 35.3984C74.4858 35.3984 74.3125 35.5753 74.3125 35.7899C74.3125 36.0047 74.4858 36.1813 74.6966 36.1813C74.7082 36.1813 74.7195 36.1808 74.7308 36.1799Z" fill="white"/>
<path d="M87.3333 64C87.127 64.0096 86.96 64.1805 86.9516 64.391C86.9421 64.6024 87.1044 64.7845 87.3119 64.7951C87.3216 64.7958 87.3315 64.7963 87.3411 64.7963C87.5479 64.7963 87.7179 64.623 87.7179 64.4123C87.7179 64.4054 87.7179 64.3982 87.7175 64.3912C87.7052 64.1814 87.5392 64.0125 87.3333 64Z" fill="white"/>
<path d="M70.9985 85.8994C70.9896 85.8987 70.9804 85.8984 70.9715 85.8984C70.7633 85.8984 70.5918 86.0732 70.5918 86.2853C70.5918 86.2916 70.592 86.2978 70.5923 86.304C70.6005 86.516 70.7757 86.6847 70.9837 86.6813C70.9861 86.6813 70.9886 86.6813 70.991 86.6813C71.2015 86.6813 71.3749 86.5049 71.3749 86.2904C71.3749 86.0787 71.2063 85.9035 70.9985 85.8994Z" fill="white"/>
<path d="M32.276 66.5875C32.2692 66.3789 32.0989 66.2109 31.894 66.2109C31.6858 66.2109 31.5141 66.3842 31.5117 66.5961C31.5138 66.8205 31.6954 67.0041 31.9159 67.0041C31.9187 67.0041 31.9213 67.0041 31.9241 67.0041C32.1314 66.9852 32.2885 66.7992 32.276 66.5875Z" fill="white"/>
<path d="M31.6201 62.2512C31.6154 62.0395 31.4437 61.8679 31.236 61.8672C31.0172 61.872 30.8398 62.0568 30.8398 62.2797C30.8398 62.2836 30.8401 62.2874 30.8401 62.2913C30.8646 62.501 31.0473 62.6573 31.2544 62.6455C31.4557 62.6443 31.6206 62.4753 31.6206 62.2701C31.6206 62.2639 31.6204 62.2574 31.6201 62.2512Z" fill="white"/>
<path d="M32.4949 68.3528C32.4854 68.352 32.4758 68.3516 32.4664 68.3516C32.2586 68.3516 32.0879 68.5258 32.0879 68.7372C32.0879 68.744 32.0881 68.7504 32.0884 68.7572C32.0902 68.9645 32.2582 69.134 32.4617 69.134C32.4661 69.134 32.4708 69.134 32.4753 69.1337C32.6835 69.1373 32.858 68.9667 32.8632 68.7545C32.8677 68.5424 32.7028 68.3626 32.4949 68.3528Z" fill="white"/>
<path d="M36.292 76.2034C36.0859 76.2197 35.9267 76.4009 35.9338 76.6114C35.9361 76.8194 36.1045 76.9891 36.3087 76.9891C36.3115 76.9891 36.3141 76.9891 36.3169 76.9891C36.321 76.9894 36.325 76.9894 36.329 76.9894C36.531 76.9894 36.6971 76.8199 36.6971 76.6142C36.6971 76.6128 36.6971 76.6116 36.6971 76.6102C36.6971 76.607 36.6971 76.6037 36.6971 76.6006C36.6971 76.3824 36.5211 76.2031 36.3071 76.2031C36.3021 76.2031 36.2969 76.2031 36.292 76.2034Z" fill="white"/>
<path d="M33.2215 70.4077C33.2107 70.4067 33.1996 70.4062 33.1886 70.4062C32.9933 70.4062 32.8311 70.5668 32.8254 70.7658C32.8245 70.7763 32.8242 70.7866 32.8242 70.7972C32.8242 71.011 32.9969 71.187 33.2067 71.187C33.4166 71.187 33.5892 71.011 33.5892 70.7972C33.5892 70.5891 33.4255 70.4158 33.2215 70.4077Z" fill="white"/>
<path d="M84.7263 47.529C84.9319 47.5096 85.0918 47.333 85.0942 47.1225C85.0796 46.9113 84.9032 46.7466 84.6955 46.7502C84.691 46.75 84.6863 46.75 84.6818 46.75C84.4792 46.75 84.3125 46.9199 84.3125 47.1263C84.3125 47.1275 84.3125 47.1285 84.3125 47.1297C84.3125 47.1326 84.3125 47.1357 84.3125 47.1386C84.3125 47.3534 84.4858 47.5302 84.6969 47.5302C84.7065 47.5302 84.7164 47.5298 84.7263 47.529Z" fill="white"/>
<path d="M32.4369 51.7388C32.4449 51.7393 32.4527 51.7395 32.4607 51.7395C32.6644 51.7395 32.8323 51.5686 32.8323 51.3608C32.8323 51.3502 32.8319 51.3394 32.8309 51.3289C32.8213 51.1189 32.6449 50.9535 32.4388 50.9612C32.2344 50.9614 32.0664 51.1328 32.0664 51.3411C32.0664 51.3437 32.0664 51.3461 32.0664 51.3488C32.0641 51.559 32.2306 51.7345 32.4369 51.7388Z" fill="white"/>
<path d="M35.1155 74.3679C34.9151 74.3679 34.75 74.5361 34.75 74.7404C34.75 74.7459 34.7502 74.7514 34.7505 74.7569C34.7507 74.9691 34.9222 75.1433 35.1304 75.1433C35.3388 75.1433 35.5103 74.9686 35.5103 74.7562C35.5103 74.7473 35.51 74.7382 35.5093 74.7291C35.5008 74.528 35.3362 74.3672 35.1386 74.3672C35.1311 74.3672 35.1233 74.3674 35.1155 74.3679Z" fill="white"/>
<path d="M49.8866 86.7422C49.8845 86.7422 49.8826 86.7422 49.8805 86.7422C49.6716 86.7422 49.4999 86.9171 49.4999 87.13C49.4999 87.1413 49.5004 87.1526 49.5013 87.1639C49.51 87.3633 49.6735 87.5227 49.8692 87.5227C49.8791 87.5227 49.8887 87.5222 49.8984 87.5215C50.1045 87.5143 50.2691 87.3371 50.2648 87.1269C50.2606 86.9171 50.0924 86.746 49.8866 86.7422Z" fill="white"/>
<path d="M62.6095 31.7658C62.8142 31.7474 62.9713 31.5671 62.9651 31.3578C62.9552 31.1483 62.7819 30.9818 62.5761 30.9844C62.5749 30.9844 62.5737 30.9844 62.5725 30.9844C62.3676 30.9844 62.1992 31.156 62.1992 31.3648C62.1992 31.3655 62.1992 31.3662 62.1992 31.367C62.1992 31.3691 62.1992 31.3713 62.1992 31.3732C62.1992 31.589 62.3735 31.7666 62.5852 31.7666C62.5932 31.7666 62.6015 31.7663 62.6095 31.7658Z" fill="white"/>
<path d="M62.6818 88.219C62.4755 88.2118 62.2986 88.3755 62.2859 88.5855C62.2854 88.5939 62.2852 88.602 62.2852 88.6104C62.2852 88.8252 62.4585 89.0021 62.6695 89.0021C62.8803 89.0021 63.0539 88.8252 63.0539 88.6104C63.0539 88.4004 62.8879 88.2257 62.6818 88.219Z" fill="white"/>
</svg>
