<svg width="24" height="25" viewBox="0 0 24 25" fill="none" xmlns="http://www.w3.org/2000/svg">
<path d="M3 7.65385C3 15.3006 9.19938 21.5 16.8462 21.5H18.9231C19.4739 21.5 20.0022 21.2812 20.3917 20.8917C20.7812 20.5022 21 19.9739 21 19.4231V18.1566C21 17.6803 20.676 17.2649 20.2135 17.1495L16.1308 16.1286C15.7246 16.0271 15.2982 16.1794 15.048 16.5135L14.1526 17.7071C13.8923 18.0542 13.4428 18.2074 13.0357 18.0578C11.5245 17.5023 10.1521 16.6249 9.01364 15.4864C7.87515 14.3479 6.99773 12.9755 6.44215 11.4643C6.29262 11.0572 6.44585 10.6077 6.79292 10.3474L7.98646 9.452C8.32154 9.20185 8.47292 8.77446 8.37139 8.36923L7.35046 4.28646C7.29428 4.06187 7.16467 3.8625 6.9822 3.72C6.79974 3.57751 6.57489 3.50008 6.34338 3.5H5.07692C4.52609 3.5 3.99782 3.71882 3.60832 4.10832C3.21882 4.49782 3 5.02609 3 5.57692V7.65385Z" fill="white"/>
</svg>
